<svg width="255" height="238" viewBox="0 0 255 238" fill="none" xmlns="http://www.w3.org/2000/svg">
<path d="M143.281 58.41C143.886 58.214 144.471 57.9697 145.029 57.68C145.807 57.2409 146.481 56.6641 147.013 55.9833C147.545 55.3024 147.922 54.5313 148.124 53.715C148.254 53.1549 148.306 52.582 148.277 52.01C148.212 51.379 148.076 50.7558 147.873 50.15C147.496 48.855 147.087 47.445 146.645 45.94L143.664 35.67L140.06 23.22C139.738 22.1 139.41 20.965 139.072 19.805C138.803 18.6458 138.183 17.5797 137.281 16.73C136.35 15.8624 135.155 15.2718 133.852 15.035C132.498 14.8215 131.107 14.937 129.817 15.37L94.0485 24C92.5184 24.3736 91.1843 25.2354 90.2866 26.43C89.3963 27.6063 88.9989 29.0371 89.1673 30.46C89.2801 31.1692 89.4516 31.8696 89.6805 32.555C89.8825 33.26 90.0791 33.96 90.2811 34.655C90.6815 36.0483 91.0765 37.43 91.4659 38.8C93.033 44.3 94.5399 49.565 95.9813 54.605C96.7093 57.125 97.4082 59.5783 98.078 61.965C98.3042 63.1362 98.855 64.2346 99.6778 65.155C100.49 66.0278 101.556 66.6711 102.752 67.01C105.143 67.78 107.518 66.735 109.784 66.285L116.336 64.73L136.052 60.07L141.419 58.825L142.817 58.515C143.134 58.445 143.298 58.425 143.298 58.425C143.298 58.425 143.145 58.48 142.834 58.56L141.447 58.92L136.101 60.25L116.445 65.06L109.893 66.645L106.421 67.48C105.146 67.7764 103.805 67.7406 102.551 67.3766C101.297 67.0126 100.179 66.3349 99.3229 65.42C98.4496 64.4556 97.8611 63.3022 97.6139 62.07C96.9259 59.69 96.2198 57.2383 95.4954 54.715C94.0485 49.68 92.5252 44.4 90.9527 38.92C90.5596 37.55 90.1628 36.1683 89.7624 34.775C89.5586 34.0817 89.3565 33.3817 89.1563 32.675C88.9138 31.9673 88.7312 31.2434 88.6103 30.51C88.4291 28.9728 88.8574 27.4271 89.817 26.155C90.7889 24.8478 92.2428 23.9052 93.912 23.5L129.686 14.92C131.049 14.4743 132.514 14.3606 133.939 14.59C135.331 14.8561 136.604 15.4988 137.592 16.435C138.545 17.3414 139.201 18.4742 139.487 19.705C139.814 20.86 140.142 22 140.459 23.12C141.731 27.62 142.916 31.77 143.997 35.585C145.078 39.4 146.05 42.84 146.907 45.87C147.333 47.3867 147.729 48.7933 148.097 50.09C148.302 50.7131 148.441 51.3526 148.512 52C148.536 52.5916 148.473 53.1835 148.326 53.76C148.11 54.5926 147.712 55.3765 147.155 56.064C146.599 56.7516 145.896 57.3285 145.089 57.76C144.673 57.985 144.23 58.1629 143.767 58.29C143.445 58.38 143.281 58.41 143.281 58.41Z" fill="#E0E0E0"/>
<path d="M128.9 45.61C128.792 45.6541 128.681 45.6893 128.567 45.715L127.606 45.965L124.024 46.87L112.012 49.83H111.914L111.87 49.745L111.04 48L105.225 35.24L105.312 35.275L102.102 36.025L101.245 36.215L100.944 36.27C101.038 36.2316 101.134 36.2015 101.234 36.18L102.08 35.955L105.28 35.145H105.345V35.2L111.237 47.935L112.045 49.7L111.908 49.635L123.964 46.745L127.562 45.905L128.534 45.69C128.653 45.6542 128.776 45.6275 128.9 45.61Z" fill="#E0E0E0"/>
<path d="M110.538 46.63C110.538 46.63 110.565 46.63 110.62 46.6L110.865 46.53L111.832 46.28L115.446 45.37L127.939 42.295L127.857 42.405C127.671 40.405 127.469 38.21 127.256 35.95C127.152 34.79 127.043 33.65 126.945 32.56L127.092 32.655L112.35 36.195L107.982 37.225L106.803 37.495L106.497 37.555C106.426 37.555 106.394 37.555 106.388 37.555L106.492 37.525L106.792 37.44L107.966 37.135L112.334 36.045L127.076 32.435L127.207 32.4V32.525C127.305 33.615 127.409 34.755 127.518 35.915C127.726 38.175 127.922 40.355 128.108 42.375V42.46H128.015L115.501 45.46L111.87 46.31L110.893 46.53L110.641 46.585L110.538 46.63Z" fill="#E0E0E0"/>
<path d="M117.39 52.905C117.39 52.905 117.33 52.775 117.188 52.56C116.989 52.2612 116.687 52.0309 116.331 51.905C116.073 51.8143 115.794 51.7833 115.52 51.8147C115.246 51.8461 114.984 51.9389 114.758 52.085C114.589 52.2172 114.451 52.3798 114.352 52.5626C114.254 52.7454 114.197 52.9447 114.185 53.1483C114.174 53.3519 114.207 53.5556 114.285 53.7468C114.362 53.938 114.481 54.1128 114.634 54.2605C114.788 54.4082 114.973 54.5257 115.177 54.6058C115.382 54.686 115.602 54.727 115.825 54.7265C116.048 54.726 116.268 54.6839 116.472 54.6028C116.677 54.5217 116.861 54.4034 117.013 54.255C117.254 53.9844 117.39 53.6487 117.401 53.3C117.401 53.05 117.368 52.91 117.401 52.905C117.471 53.0267 117.507 53.1625 117.505 53.3C117.527 53.6767 117.403 54.0485 117.155 54.35C116.967 54.5802 116.718 54.7623 116.431 54.8787C116.144 54.9952 115.83 55.0421 115.517 55.015C115.136 54.9855 114.774 54.8488 114.48 54.6234C114.187 54.3981 113.977 54.0953 113.879 53.7564C113.781 53.4175 113.8 53.0591 113.933 52.7304C114.066 52.4016 114.306 52.1186 114.622 51.92C114.876 51.759 115.171 51.6603 115.479 51.6331C115.787 51.606 116.097 51.6514 116.38 51.765C116.758 51.9167 117.066 52.1835 117.253 52.52C117.333 52.636 117.38 52.7683 117.39 52.905Z" fill="#E0E0E0"/>
<path d="M128.31 50.26C128.31 50.26 128.25 50.125 128.108 49.915C127.907 49.6174 127.606 49.3876 127.251 49.26C126.969 49.1612 126.663 49.1356 126.366 49.186C126.07 49.2364 125.794 49.3608 125.57 49.5456C125.345 49.7303 125.181 49.9682 125.095 50.2331C125.009 50.4979 125.004 50.7793 125.082 51.0463C125.159 51.3134 125.316 51.5556 125.534 51.7463C125.753 51.937 126.024 52.0687 126.319 52.127C126.614 52.1853 126.921 52.1679 127.206 52.0767C127.491 51.9855 127.742 51.824 127.933 51.61C128.174 51.3375 128.31 51.0003 128.321 50.65C128.321 50.405 128.288 50.265 128.321 50.26C128.392 50.3797 128.427 50.514 128.425 50.65C128.448 51.0269 128.324 51.3991 128.075 51.7C127.89 51.9264 127.645 52.1061 127.363 52.2224C127.082 52.3387 126.772 52.3878 126.464 52.365C126.084 52.3353 125.722 52.1983 125.43 51.9729C125.137 51.7474 124.928 51.4446 124.831 51.1059C124.734 50.7673 124.754 50.4095 124.888 50.0817C125.022 49.7538 125.264 49.472 125.58 49.275C125.835 49.1141 126.131 49.0154 126.44 48.9882C126.748 48.9611 127.059 49.0065 127.344 49.12C127.722 49.2703 128.031 49.5375 128.217 49.875C128.282 49.9945 128.314 50.1267 128.31 50.26Z" fill="#E0E0E0"/>
<path d="M227.507 237.825C215.25 232.325 210.532 219.515 208.987 207.64C208.73 205.64 208.141 203.64 208.878 201.74C209.615 199.84 211.799 198.345 213.868 198.905C215.583 199.37 216.565 200.975 217.69 202.255C219.202 203.966 221.21 205.252 223.483 205.965C224.963 206.42 226.727 206.58 227.966 205.705C229.669 204.505 229.489 202.125 229.151 200.165L227.234 189.21C226.89 187.25 226.546 185.25 226.901 183.295C227.256 181.34 228.436 179.405 230.385 178.595C232.334 177.785 235.037 178.505 235.785 180.365C236.101 181.135 236.063 181.99 236.26 182.795C236.456 183.6 237.019 184.445 237.898 184.555C238.777 184.665 239.536 183.985 240.082 183.32C241.96 181.03 243.03 178.27 244.007 175.535C244.985 172.8 245.908 170.01 247.551 167.57C249.194 165.13 251.679 163.025 254.72 162.43C257.761 161.835 261.321 163.115 262.561 165.76C263.8 168.405 262.539 171.47 260.988 174C258.704 177.721 255.844 181.119 252.498 184.09C251.897 184.625 251.242 185.2 251.105 185.965C250.86 187.335 252.432 188.465 253.912 188.675C255.594 188.94 257.297 188.545 259.001 188.485C260.704 188.425 262.621 188.85 263.494 190.21C264.712 192.09 263.232 194.45 261.66 196.08C258.511 199.337 254.775 202.076 250.614 204.175C249.123 204.92 247.546 205.62 246.443 206.81C245.34 208 244.876 209.875 245.897 211.15C246.918 212.425 248.938 212.59 250.543 212.075C252.148 211.56 253.486 210.535 254.966 209.77C257.739 208.335 261.572 207.985 263.849 210.05C265.345 211.41 265.809 213.525 265.487 215.44C265.165 217.355 264.16 219.1 263.052 220.74C259.186 226.475 253.835 231.405 247.371 234.535C240.906 237.665 234.676 239.145 227.513 237.825" fill="#F5F5F5"/>
<path d="M229.593 229.95C230.653 223.211 232.135 216.533 234.032 209.95C234.523 208.197 235.009 206.467 235.49 204.76C235.97 203.06 236.451 201.375 237.03 199.76C238.15 196.645 239.457 193.589 240.944 190.605C242.342 187.75 243.784 185.105 245.149 182.605C246.514 180.105 247.851 177.835 249.162 175.795C251.206 172.566 253.529 169.491 256.107 166.6C257.013 165.6 257.745 164.805 258.253 164.29L258.831 163.705C258.893 163.635 258.963 163.572 259.039 163.515C258.986 163.59 258.927 163.662 258.864 163.73L258.318 164.34C257.838 164.87 257.122 165.655 256.232 166.695C253.708 169.612 251.426 172.699 249.407 175.93C248.119 177.97 246.808 180.265 245.449 182.745C244.089 185.225 242.67 187.9 241.283 190.745C239.811 193.722 238.517 196.77 237.406 199.875C236.833 201.49 236.363 203.16 235.877 204.875C235.392 206.59 234.917 208.31 234.425 210.06C232.533 216.629 231.041 223.289 229.959 230.01" fill="#E0E0E0"/>
<path d="M237.139 199.73C236.993 199.473 236.876 199.203 236.789 198.925C236.587 198.395 236.32 197.625 236.009 196.67C235.375 194.76 234.605 192.095 233.764 189.17C232.924 186.245 232.126 183.58 231.449 181.67C231.122 180.72 230.849 179.955 230.652 179.425C230.532 179.158 230.445 178.879 230.39 178.595C230.558 178.84 230.695 179.102 230.8 179.375C231.04 179.875 231.346 180.645 231.717 181.585C232.449 183.47 233.306 186.115 234.147 189.06C234.987 192.005 235.708 194.59 236.276 196.6C236.538 197.505 236.762 198.27 236.942 198.88C237.043 199.155 237.109 199.441 237.139 199.73Z" fill="#E0E0E0"/>
<path d="M263.887 191.14C263.533 191.262 263.168 191.354 262.795 191.415C262.102 191.57 261.092 191.795 259.852 192.105C257.374 192.71 253.977 193.655 250.281 194.845C246.585 196.035 243.298 197.26 240.944 198.205C239.765 198.665 238.82 199.065 238.165 199.335C237.833 199.495 237.486 199.627 237.128 199.73C237.433 199.537 237.756 199.369 238.094 199.23C238.733 198.915 239.661 198.48 240.824 197.985C243.156 196.985 246.443 195.72 250.144 194.52C253.304 193.487 256.518 192.602 259.776 191.87C261.026 191.59 262.047 191.405 262.757 191.295C263.128 191.211 263.506 191.159 263.887 191.14Z" fill="#E0E0E0"/>
<path d="M229.866 229.44C229.772 229.358 229.691 229.263 229.626 229.16L228.998 228.315C228.452 227.575 227.715 226.49 226.814 225.14C225.001 222.44 222.621 218.64 220.06 214.405C217.499 210.17 215.146 206.355 213.415 203.62L211.302 200.39C211.078 200.04 210.892 199.75 210.756 199.51C210.682 199.41 210.623 199.3 210.581 199.185C210.672 199.272 210.753 199.367 210.822 199.47C210.991 199.7 211.198 199.97 211.444 200.315C211.99 201.05 212.733 202.135 213.628 203.485C215.441 206.19 217.816 209.985 220.382 214.225C222.948 218.465 225.296 222.275 227.027 225.005L229.107 228.235L229.653 229.12C229.739 229.218 229.81 229.325 229.866 229.44Z" fill="#E0E0E0"/>
<path d="M264.63 213.5C264.528 213.579 264.414 213.643 264.291 213.69L263.281 214.165L259.558 215.88C256.418 217.33 252.099 219.38 247.333 221.64C242.566 223.9 238.225 225.92 235.048 227.31C233.459 228.005 232.17 228.555 231.269 228.92L230.226 229.335C230.109 229.389 229.984 229.429 229.855 229.455C229.959 229.379 230.073 229.315 230.194 229.265L231.204 228.79L234.922 227.075C238.067 225.63 242.386 223.575 247.152 221.315C251.919 219.055 256.26 217.035 259.432 215.645C261.021 214.95 262.315 214.4 263.216 214.035L264.253 213.625C264.372 213.568 264.499 213.526 264.63 213.5Z" fill="#E0E0E0"/>
<path d="M17.7286 56.845C17.7286 56.845 11.6407 58.2 16.4728 70.27C21.3049 82.34 24.9467 88.455 24.9467 88.455C24.9467 88.455 25.7221 91.22 23.2378 91.36C20.7535 91.5 15.5228 90.13 14.0813 92.725C12.5853 95.42 14.4745 98.33 18.7005 101.165C22.9265 104 31.9355 110.525 32.76 111.12C33.5845 111.715 34.256 113.025 32.5853 113.37C30.9145 113.715 18.7442 113.53 18.9953 118.82C19.2465 124.11 32.4269 130.245 33.852 130.94C35.2771 131.635 35.561 132.255 35.3426 132.995C35.1242 133.735 31.0346 133.32 27.573 133.395C24.1114 133.47 20.1092 134.12 20.5351 137.165C20.9609 140.21 28.3101 147.315 47.9224 151.295L57.1389 152.595L63.1449 145.99C75.0095 131.15 75.4135 121.365 73.5189 118.82C71.6243 116.275 68.1736 118.21 65.5145 120.245C62.8555 122.28 60.0873 125.06 59.3884 124.64C58.6895 124.22 58.4548 123.58 59.0226 122.195C59.5904 120.81 65.0887 108.235 61.4632 104.105C57.8378 99.975 48.8288 107.47 47.3218 108.225C45.8149 108.98 45.389 107.555 45.5692 106.635C45.7493 105.715 47.8187 95.355 48.9544 90.67C50.09 85.985 49.4021 82.67 46.339 81.54C43.3852 80.455 40.4368 84.655 38.4712 86.04C36.5056 87.425 35.0969 84.89 35.0969 84.89C35.0969 84.89 33.4261 78.095 28.3592 66.105C23.2924 54.115 17.6085 56.875 17.6085 56.875" fill="#EBEBEB"/>
<path d="M57.3573 154.64C53.6718 145.825 47.4092 130.05 41.9547 116.535C36.5001 103.02 31.5534 90.795 27.917 81.96C26.0988 77.555 24.641 73.96 23.5981 71.505C23.0958 70.275 22.6972 69.32 22.4297 68.66C22.2987 68.34 22.2004 68.095 22.1294 67.915C22.0584 67.735 22.0366 67.66 22.0366 67.66C22.0366 67.66 22.0803 67.74 22.1567 67.905L22.4843 68.64L23.7073 71.465C24.7611 73.92 26.2681 77.465 28.1081 81.895C31.7936 90.71 36.7731 102.93 42.2277 116.445C47.6822 129.96 53.9121 145.74 57.5484 154.575" fill="#E0E0E0"/>
<path d="M21.3268 94.915C21.5427 94.9751 21.7513 95.0556 21.9492 95.155C22.3423 95.32 22.9047 95.575 23.5872 95.895C24.9631 96.54 26.8632 97.48 28.9052 98.545L34.1578 101.295L35.7521 102.12C35.9462 102.208 36.1292 102.316 36.2981 102.44C36.0811 102.387 35.872 102.31 35.6756 102.21C35.2825 102.045 34.7201 101.79 34.0376 101.46C32.6617 100.8 30.7944 99.845 28.7414 98.775L23.478 96.06L21.8782 95.245C21.6793 95.1578 21.4938 95.0469 21.3268 94.915Z" fill="#E0E0E0"/>
<path d="M37.0406 101.97C36.9697 101.935 38.908 98.3 41.365 93.845C43.822 89.39 45.8804 85.81 45.9514 85.845C46.0223 85.88 44.084 89.515 41.627 93.97C39.17 98.425 37.128 102 37.0406 101.97Z" fill="#E0E0E0"/>
<path d="M44.3953 123.07C44.5193 122.887 44.6678 122.719 44.8375 122.57L46.1152 121.32C47.2072 120.26 48.6759 118.82 50.2429 117.12C51.8099 115.42 53.1859 113.89 54.1632 112.755L55.3262 111.41C55.4592 111.238 55.6111 111.079 55.7794 110.935C55.68 111.124 55.5592 111.304 55.419 111.47C55.1678 111.805 54.802 112.285 54.327 112.87C53.3879 114.035 52.0447 115.615 50.4668 117.295C48.8888 118.975 47.3819 120.425 46.2626 121.45C45.7166 121.95 45.247 122.37 44.9194 122.645C44.7604 122.802 44.5848 122.944 44.3953 123.07Z" fill="#E0E0E0"/>
<path d="M28.6432 119.555C28.8572 119.556 29.0701 119.583 29.2765 119.635L30.9746 119.95C32.3996 120.225 34.3707 120.625 36.5438 121.085C38.7169 121.545 40.6825 121.97 42.0966 122.295L43.7728 122.69C43.9815 122.729 44.1848 122.789 44.3789 122.87C44.1666 122.869 43.9555 122.842 43.751 122.79L42.042 122.5C40.6115 122.225 38.6404 121.825 36.4673 121.365C34.2943 120.905 32.3341 120.48 30.9145 120.155L29.2383 119.76C29.0316 119.714 28.8318 119.645 28.6432 119.555Z" fill="#E0E0E0"/>
<path d="M32.5525 138.935C32.8228 138.952 33.0912 138.989 33.3552 139.045L35.5392 139.44C37.3737 139.785 39.9072 140.28 42.6918 140.845C45.4764 141.41 48.0098 141.93 49.828 142.32L52.012 142.82C52.2803 142.869 52.5434 142.939 52.7982 143.03C52.5254 143.019 52.2546 142.982 51.9901 142.92L49.8061 142.525C47.9716 142.18 45.4381 141.685 42.6535 141.12C39.8689 140.555 37.3137 140 35.49 139.625L33.306 139.125C33.0484 139.086 32.7959 139.022 32.5525 138.935Z" fill="#E0E0E0"/>
<path d="M52.3123 142.79C52.4723 142.566 52.6551 142.357 52.8583 142.165L54.4144 140.525C55.7302 139.135 57.532 137.215 59.4649 135.025C61.3977 132.835 63.0903 130.845 64.3024 129.385L65.7439 127.655C65.9062 127.436 66.0889 127.23 66.2899 127.04C66.1587 127.277 66.0052 127.503 65.8312 127.715C65.5145 128.145 65.0504 128.755 64.4608 129.5C63.2869 131 61.6161 133 59.6833 135.195C57.7504 137.39 55.9159 139.275 54.5618 140.635C53.8847 141.31 53.3278 141.855 52.9238 142.22C52.7357 142.424 52.5312 142.614 52.3123 142.79Z" fill="#E0E0E0"/>
<path d="M228.555 32.7895H212.721C211.681 32.8144 210.695 33.2158 209.979 33.9057C209.262 34.5956 208.874 35.5177 208.899 36.4695V39.0995C208.924 40.0513 208.535 40.9734 207.819 41.6633C207.102 42.3532 206.116 42.7546 205.077 42.7795H174.2C173.157 42.7559 172.167 42.355 171.445 41.6645C170.724 40.9739 170.33 40.0499 170.351 39.0945V36.4395C170.372 35.4888 169.982 34.569 169.266 33.88C168.551 33.1909 167.567 32.7883 166.529 32.7595H160.96H147.097C143.79 32.7595 140.618 33.9618 138.279 36.1023C135.939 38.2427 134.624 41.1461 134.621 44.1745L134.583 227.259C134.583 230.286 135.895 233.189 138.232 235.329C140.568 237.47 143.737 238.673 147.042 238.674L228.582 238.719C230.219 238.721 231.84 238.427 233.353 237.854C234.866 237.281 236.241 236.441 237.399 235.381C238.557 234.321 239.476 233.063 240.103 231.678C240.73 230.293 241.053 228.809 241.053 227.309L241.091 44.2195C241.093 42.7137 240.77 41.2224 240.14 39.8315C239.51 38.4406 238.586 37.1775 237.421 36.1151C236.255 35.0527 234.872 34.2119 233.35 33.6411C231.829 33.0704 230.199 32.7809 228.555 32.7895Z" fill="white"/>
<path d="M228.556 32.79C228.556 32.79 228.698 32.79 228.982 32.79C229.404 32.7894 229.825 32.8178 230.243 32.875C231.901 33.0664 233.496 33.5776 234.922 34.375C235.979 34.943 236.937 35.6544 237.761 36.485C238.77 37.4818 239.575 38.637 240.136 39.895C240.784 41.367 241.102 42.9433 241.07 44.53C241.07 46.215 241.07 48.03 241.07 49.91C241.07 65.12 241.097 87.125 241.114 114.31C241.13 141.495 241.114 173.88 241.114 209.81V226.92C241.143 228.102 240.983 229.281 240.639 230.42C240.291 231.562 239.753 232.648 239.044 233.64C238.322 234.628 237.449 235.515 236.451 236.275C234.401 237.795 231.882 238.691 229.249 238.835C226.639 238.905 224.04 238.835 221.419 238.865H205.564H172.984H147.906C145.019 239 142.163 238.264 139.776 236.77C137.415 235.254 135.683 233.051 134.862 230.52C134.473 229.266 134.298 227.964 134.343 226.66V222.81C134.343 217.69 134.343 212.602 134.343 207.545C134.343 197.445 134.343 187.498 134.343 177.705C134.343 158.14 134.343 139.27 134.343 121.29C134.343 103.31 134.343 86.23 134.343 70.24C134.343 62.24 134.343 54.53 134.343 47.11C134.343 46.18 134.343 45.255 134.343 44.34C134.343 43.88 134.387 43.415 134.414 42.955C134.442 42.495 134.54 42.04 134.665 41.595C135.116 39.8159 136.015 38.1581 137.292 36.755C138.531 35.4053 140.091 34.3326 141.852 33.6186C143.613 32.9047 145.528 32.5682 147.453 32.635H158.318H166.104C166.976 32.5925 167.838 32.8119 168.561 33.26C169.264 33.7127 169.796 34.3538 170.084 35.095C170.324 35.8253 170.409 36.5906 170.336 37.35V38.5C170.323 38.8637 170.336 39.2278 170.374 39.59C170.491 40.3039 170.839 40.9693 171.373 41.5C171.87 42.0332 172.536 42.4108 173.279 42.58C173.645 42.6604 174.021 42.6957 174.398 42.685H180.049H196.484H203.729C204.302 42.685 204.887 42.685 205.427 42.685C205.969 42.623 206.489 42.4522 206.95 42.185C207.394 41.9274 207.777 41.5913 208.077 41.1963C208.377 40.8014 208.588 40.3556 208.698 39.885C208.788 39.4266 208.821 38.9603 208.796 38.495C208.796 38.035 208.796 37.58 208.796 37.13C208.774 36.6858 208.796 36.2406 208.861 35.8C208.94 35.3716 209.099 34.9589 209.331 34.58C209.772 33.863 210.468 33.3055 211.302 33C212.102 32.769 212.945 32.6874 213.781 32.76H221.867H226.836H228.534H226.836H221.867H213.781C212.984 32.76 212.143 32.685 211.346 33.005C210.525 33.3067 209.844 33.8598 209.418 34.57C209.197 34.9413 209.044 35.3433 208.965 35.76C208.906 36.1945 208.886 36.6326 208.905 37.07C208.905 37.52 208.905 37.975 208.905 38.435C208.926 38.9085 208.893 39.3828 208.807 39.85C208.695 40.3373 208.478 40.7992 208.168 41.2087C207.859 41.6182 207.463 41.9671 207.005 42.235C206.522 42.5075 205.98 42.6783 205.416 42.735C204.837 42.78 204.28 42.735 203.702 42.735H174.398C174.003 42.7492 173.608 42.7139 173.224 42.63C172.44 42.454 171.736 42.0549 171.215 41.49C170.678 40.9264 170.335 40.231 170.226 39.49C170.192 39.161 170.18 38.8304 170.188 38.5V37.37C170.256 36.634 170.173 35.8929 169.943 35.185C169.671 34.4834 169.167 33.8768 168.501 33.45C167.814 33.0274 166.996 32.8204 166.17 32.86H147.518C145.63 32.7949 143.751 33.1259 142.024 33.8279C140.297 34.5298 138.768 35.5841 137.554 36.91C136.307 38.2849 135.43 39.9084 134.993 41.65C134.867 42.085 134.829 42.535 134.742 42.98C134.655 43.425 134.682 43.88 134.676 44.34V47.11C134.676 54.53 134.676 62.24 134.676 70.24C134.676 86.24 134.676 103.315 134.676 121.29V177.705C134.676 187.485 134.676 197.432 134.676 207.545V226.66C134.629 227.933 134.799 229.205 135.179 230.43C135.986 232.893 137.679 235.034 139.983 236.505C142.311 237.95 145.093 238.653 147.901 238.505H156.32H172.978H205.558H221.436C224.051 238.505 226.672 238.545 229.249 238.475C231.812 238.333 234.262 237.459 236.254 235.975C237.228 235.236 238.079 234.372 238.782 233.41C239.471 232.446 239.994 231.39 240.333 230.28C240.667 229.173 240.823 228.028 240.797 226.88C240.797 225.72 240.797 224.57 240.797 223.415C240.797 218.815 240.797 214.267 240.797 209.77C240.797 173.825 240.835 141.445 240.852 114.27C240.868 87.095 240.906 65.08 240.923 49.87C240.923 47.97 240.923 46.175 240.923 44.49C240.958 42.9162 240.648 41.3519 240.011 39.89C239.458 38.6409 238.664 37.4927 237.668 36.5C235.72 34.5344 233.081 33.2569 230.21 32.89C229.794 32.831 229.375 32.7959 228.954 32.785C228.698 32.805 228.556 32.79 228.556 32.79Z" fill="#263238"/>
<path d="M154.731 51.2798C154.731 51.3246 152.667 51.3844 150.128 51.3993C147.589 51.4143 145.525 51.3993 145.525 51.3495C145.525 51.2997 147.584 51.2449 150.128 51.225C152.673 51.2051 154.731 51.23 154.731 51.2798Z" fill="#263238"/>
<path d="M154.747 53.4348C154.747 53.4846 152.689 53.5394 150.15 53.5593C147.611 53.5792 145.547 53.5593 145.547 53.5045C145.547 53.4497 147.606 53.3999 150.145 53.38C152.683 53.3601 154.747 53.385 154.747 53.4348Z" fill="#263238"/>
<path d="M154.769 55.5898C154.769 55.6396 152.711 55.6944 150.166 55.7143C147.622 55.7342 145.564 55.7143 145.564 55.6595C145.564 55.6047 147.622 55.5549 150.166 55.535C152.711 55.5151 154.769 55.54 154.769 55.5898Z" fill="#263238"/>
<path d="M184.952 192.45H143.975V229.975H184.952V192.45Z" fill="#F5F5F5"/>
<path d="M180.114 213.92C176.778 209.655 169.697 206.735 163.942 207.52C159.279 208.155 155.151 210.14 152.891 214.38C152.739 214.657 152.663 214.963 152.668 215.272C152.673 215.582 152.76 215.886 152.921 216.158C153.082 216.43 153.312 216.663 153.592 216.837C153.872 217.01 154.193 217.12 154.529 217.155C162.298 218.004 170.151 217.981 177.914 217.085C179.11 216.945 180.535 216.64 180.617 215.285C180.624 214.791 180.447 214.309 180.114 213.92Z" fill="#D88484"/>
<g opacity="0.5">
<path opacity="0.5" d="M180.114 213.92C176.778 209.655 169.697 206.735 163.942 207.52C159.279 208.155 155.151 210.14 152.891 214.38" fill="white"/>
</g>
<path d="M161.692 213.705C161.665 213.705 161.425 213.51 161.108 213.11C160.685 212.581 160.384 211.979 160.224 211.34C160.087 210.705 160.029 210.057 160.049 209.41C160.025 209.143 160.049 208.875 160.12 208.615C160.211 208.87 160.255 209.137 160.251 209.405C160.288 210.034 160.37 210.661 160.497 211.28C160.659 211.889 160.92 212.472 161.272 213.01C161.444 213.224 161.585 213.458 161.692 213.705Z" fill="#F5F5F5"/>
<path d="M166.634 213.5C166.552 213.5 166.672 212.29 166.497 210.82C166.323 209.35 165.951 208.195 166.022 208.17C166.825 209.846 167.039 211.708 166.634 213.5Z" fill="#F5F5F5"/>
<path d="M171.744 212.805C171.662 212.775 172.05 211.97 172.143 210.91C172.236 209.85 172.023 208.995 172.105 208.975C172.379 209.594 172.49 210.264 172.427 210.93C172.364 211.595 172.13 212.238 171.744 212.805Z" fill="#F5F5F5"/>
<g opacity="0.3">
<path opacity="0.3" d="M165.727 207.72L165.772 207.796L165.727 207.72Z" fill="black"/>
</g>
<path d="M185.427 71.145H143.975V128.05H185.427V71.145Z" fill="#F5F5F5"/>
<path d="M185.427 132.34H143.975V189.245H185.427V132.34Z" fill="#F5F5F5"/>
<path d="M230.827 121.595H189.375V174.725H230.827V121.595Z" fill="#F5F5F5"/>
<path d="M230.489 178.46H189.036V229.97H230.489V178.46Z" fill="#F5F5F5"/>
<path d="M230.827 71.145H189.375V118.145H230.827V71.145Z" fill="#F5F5F5"/>
<path d="M171.215 88.16V103.935C171.215 104.625 170.609 105.34 169.495 105.88C168.002 106.522 166.366 106.834 164.717 106.79H164.69C160.622 106.79 158.193 105.32 158.193 103.935V88.13C158.193 86.59 159.432 84.985 160.677 83.395C161.512 82.335 161.714 80.81 161.769 79.895C161.769 79.79 161.769 79.695 161.769 79.605H161.654C161.415 79.6216 161.179 79.551 160.997 79.4086C160.815 79.2662 160.702 79.0636 160.682 78.845V78.18C160.701 77.9602 160.813 77.7558 160.995 77.6116C161.177 77.4673 161.414 77.3949 161.654 77.41H167.764C167.945 77.4053 168.125 77.4461 168.283 77.5281C168.44 77.61 168.571 77.73 168.659 77.875C168.71 77.9701 168.736 78.0744 168.736 78.18V78.845C168.715 79.0631 168.601 79.2649 168.42 79.407C168.238 79.5492 168.002 79.6203 167.764 79.605H167.622C167.622 79.695 167.622 79.79 167.622 79.895C167.66 80.795 167.862 82.32 168.714 83.395C169.959 84.985 171.193 86.59 171.198 88.13L171.215 88.16Z" fill="#FAFAFA"/>
<path d="M171.215 88.16V88C171.2 87.8423 171.176 87.6855 171.144 87.53C170.998 86.9336 170.755 86.3606 170.423 85.83C169.89 84.9861 169.301 84.1729 168.659 83.395C167.908 82.2585 167.529 80.9482 167.567 79.62V79.53H167.622C167.837 79.5599 168.057 79.5155 168.238 79.4056C168.42 79.2957 168.55 79.128 168.605 78.935C168.605 78.735 168.605 78.49 168.605 78.265C168.618 78.1618 168.602 78.0572 168.559 77.9611C168.516 77.8649 168.447 77.7802 168.359 77.715C168.173 77.5778 167.937 77.5084 167.698 77.52H165.236H161.72C161.583 77.509 161.445 77.5246 161.315 77.566C161.185 77.6074 161.066 77.6735 160.966 77.76C160.876 77.8471 160.815 77.9567 160.792 78.075C160.783 78.2116 160.783 78.3485 160.792 78.485C160.792 78.625 160.792 78.79 160.792 78.905C160.809 79.0271 160.868 79.1409 160.961 79.23C161.063 79.3239 161.186 79.3956 161.322 79.4397C161.458 79.4839 161.603 79.4994 161.747 79.485H161.873V79.61C161.866 80.2554 161.789 80.8986 161.643 81.53C161.502 82.1928 161.222 82.8243 160.819 83.39C159.9 84.4596 159.142 85.6367 158.564 86.89C158.441 87.2134 158.36 87.5491 158.324 87.89C158.324 88.225 158.324 88.595 158.324 88.95V91.12C158.324 92.5867 158.324 94.0734 158.324 95.58C158.324 98.23 158.324 100.82 158.324 103.32C158.307 103.621 158.322 103.922 158.367 104.22C158.447 104.5 158.603 104.756 158.82 104.965C159.265 105.397 159.805 105.738 160.404 105.965C161.584 106.398 162.84 106.634 164.111 106.66C165.322 106.718 166.535 106.618 167.715 106.365C168.829 106.163 169.851 105.662 170.652 104.925C170.824 104.744 170.954 104.533 171.035 104.305C171.096 104.073 171.118 103.833 171.1 103.595V102.145C171.1 101.195 171.1 100.285 171.1 99.415C171.1 95.95 171.133 93.145 171.144 91.185C171.144 90.225 171.144 89.475 171.144 88.945C171.144 88.415 171.171 88.165 171.171 88.165C171.2 88.4242 171.211 88.6847 171.204 88.945C171.204 89.475 171.204 90.225 171.231 91.185C171.231 93.145 171.231 95.95 171.275 99.415C171.275 100.285 171.275 101.195 171.275 102.145V103.595C171.296 103.853 171.274 104.113 171.209 104.365C171.12 104.622 170.975 104.86 170.783 105.065C169.953 105.837 168.887 106.36 167.726 106.565C166.524 106.83 165.286 106.936 164.051 106.88C162.741 106.857 161.446 106.616 160.229 106.17C159.593 105.936 159.02 105.58 158.547 105.125C158.3 104.884 158.122 104.59 158.029 104.27C157.976 103.952 157.958 103.631 157.974 103.31C157.974 100.81 157.974 98.22 157.974 95.57C157.974 94.06 157.974 92.5734 157.974 91.11V88.94C157.974 88.575 157.974 88.235 157.974 87.86C158.01 87.4986 158.094 87.1425 158.225 86.8C158.813 85.5255 159.586 84.3297 160.524 83.245C161.227 82.1424 161.579 80.8814 161.54 79.605L161.671 79.725C161.492 79.739 161.311 79.7161 161.143 79.6582C160.975 79.6002 160.823 79.5086 160.699 79.39C160.572 79.2658 160.49 79.1086 160.464 78.94C160.464 78.765 160.464 78.64 160.464 78.49C160.454 78.3419 160.454 78.1932 160.464 78.045C160.496 77.8807 160.582 77.7291 160.71 77.61C160.832 77.5011 160.977 77.4171 161.137 77.3636C161.297 77.3102 161.468 77.2885 161.638 77.3H165.154H167.617C167.904 77.2923 168.185 77.3792 168.408 77.545C168.517 77.6298 168.603 77.737 168.658 77.8578C168.713 77.9785 168.736 78.1095 168.725 78.24C168.725 78.475 168.725 78.685 168.725 78.935C168.665 79.17 168.511 79.376 168.294 79.5129C168.077 79.6497 167.812 79.7075 167.551 79.675L167.644 79.59C167.592 80.888 167.948 82.1723 168.67 83.29C169.304 84.0797 169.884 84.9046 170.407 85.76C170.733 86.3011 170.962 86.887 171.084 87.495C171.112 87.6522 171.128 87.8109 171.133 87.97C171.173 88.028 171.201 88.0925 171.215 88.16Z" fill="#263238"/>
<path d="M167.3 79.585C165.485 79.7598 163.655 79.7598 161.84 79.585C163.655 79.4103 165.485 79.4103 167.3 79.585Z" fill="#263238"/>
<path d="M170.669 90.265C170.376 90.1341 170.053 90.0724 169.727 90.0855C169.402 90.0986 169.086 90.1861 168.807 90.34C168.249 90.6508 167.646 90.8881 167.016 91.045C166.247 91.1102 165.477 90.9338 164.832 90.545C164.188 90.1605 163.511 89.826 162.806 89.545C162.107 89.3272 161.355 89.2937 160.635 89.4484C159.916 89.6031 159.259 89.9398 158.739 90.42V103.92C158.739 103.92 159.552 106.225 165.263 105.865C170.974 105.505 170.521 103.195 170.521 103.195L170.669 90.265Z" fill="#D88484"/>
<path d="M214.802 197.625V213.27C214.802 213.96 214.201 214.665 213.087 215.205C211.606 215.846 209.98 216.156 208.343 216.11C204.297 216.11 201.884 214.645 201.884 213.27V197.645C201.884 197.645 201.884 197.645 201.884 197.61C201.884 196.08 203.117 194.485 204.351 192.91C205.187 191.855 205.383 190.335 205.443 189.445C205.443 189.34 205.443 189.245 205.443 189.16H205.296C205.058 189.175 204.823 189.104 204.642 188.962C204.462 188.82 204.349 188.618 204.33 188.4V187.74C204.348 187.522 204.46 187.319 204.641 187.177C204.822 187.034 205.058 186.964 205.296 186.98H211.368C211.548 186.975 211.726 187.015 211.883 187.096C212.04 187.177 212.17 187.296 212.258 187.44C212.305 187.534 212.33 187.636 212.329 187.74V188.4C212.31 188.617 212.199 188.819 212.019 188.961C211.839 189.104 211.605 189.175 211.368 189.16H211.253C211.253 189.245 211.253 189.34 211.253 189.445C211.291 190.335 211.488 191.855 212.318 192.91C213.557 194.485 214.78 196.08 214.791 197.61C214.807 197.605 214.802 197.615 214.802 197.625Z" fill="#FAFAFA"/>
<path d="M214.802 197.625C214.806 197.572 214.806 197.518 214.802 197.465C214.79 197.307 214.768 197.15 214.736 196.995C214.59 196.404 214.349 195.836 214.021 195.31C213.492 194.47 212.905 193.661 212.263 192.89C211.515 191.761 211.136 190.46 211.171 189.14V189.045H211.264C211.478 189.074 211.696 189.03 211.876 188.92C212.055 188.81 212.184 188.642 212.236 188.45C212.236 188.255 212.236 188.01 212.236 187.785C212.246 187.683 212.229 187.58 212.186 187.485C212.143 187.39 212.076 187.306 211.99 187.24C211.804 187.105 211.572 187.036 211.335 187.045H208.889H205.394C205.258 187.034 205.121 187.05 204.992 187.091C204.863 187.132 204.745 187.199 204.646 187.285C204.555 187.371 204.494 187.481 204.472 187.6C204.463 187.735 204.463 187.87 204.472 188.005C204.472 188.14 204.472 188.305 204.472 188.42C204.489 188.542 204.548 188.656 204.641 188.745C204.741 188.837 204.863 188.908 204.997 188.951C205.132 188.994 205.275 189.009 205.416 188.995H205.547V189.12C205.541 189.76 205.464 190.399 205.318 191.025C205.178 191.683 204.9 192.309 204.499 192.87C203.584 193.939 202.831 195.117 202.26 196.37C202.136 196.693 202.057 197.029 202.025 197.37C202.025 197.7 202.025 198.07 202.025 198.42C202.025 199.13 202.025 199.85 202.025 200.58V205C202.025 207.635 202.025 210.21 202.025 212.695C202.009 212.992 202.024 213.29 202.069 213.585C202.15 213.864 202.306 214.12 202.522 214.33C202.964 214.761 203.5 215.101 204.095 215.33C205.261 215.75 206.5 215.977 207.753 216C208.956 216.058 210.162 215.958 211.335 215.705C212.442 215.508 213.458 215.01 214.25 214.275C214.422 214.096 214.552 213.887 214.633 213.66C214.692 213.429 214.712 213.191 214.693 212.955C214.693 212.455 214.693 211.985 214.693 211.515C214.693 210.57 214.693 209.67 214.693 208.805C214.693 205.36 214.725 202.57 214.736 200.625C214.736 199.67 214.736 198.925 214.764 198.405C214.791 197.885 214.764 197.63 214.764 197.63C214.796 197.887 214.807 198.146 214.796 198.405C214.796 198.905 214.796 199.67 214.796 200.625C214.796 202.57 214.824 205.36 214.846 208.805C214.846 209.67 214.846 210.57 214.846 211.515C214.846 211.985 214.846 212.465 214.846 212.955C214.867 213.212 214.843 213.47 214.775 213.72C214.687 213.975 214.544 214.211 214.354 214.415C213.531 215.184 212.472 215.707 211.318 215.915C210.124 216.18 208.893 216.286 207.666 216.23C206.37 216.205 205.09 215.967 203.887 215.525C203.284 215.288 202.742 214.939 202.293 214.5C202.048 214.26 201.872 213.968 201.78 213.65C201.727 213.336 201.709 213.018 201.725 212.7V198.41C201.725 198.05 201.725 197.71 201.725 197.34C201.761 196.979 201.846 196.623 201.976 196.28C202.56 195.016 203.328 193.83 204.259 192.755C204.954 191.659 205.304 190.407 205.269 189.14L205.394 189.255C205.217 189.268 205.04 189.246 204.873 189.189C204.707 189.132 204.557 189.042 204.433 188.925C204.306 188.802 204.225 188.644 204.204 188.475C204.204 188.305 204.204 188.18 204.204 188.03C204.193 187.882 204.193 187.733 204.204 187.585C204.239 187.423 204.324 187.273 204.45 187.155C204.571 187.047 204.716 186.963 204.875 186.91C205.034 186.856 205.203 186.834 205.372 186.845H208.867H211.313C211.599 186.836 211.878 186.923 212.099 187.09C212.208 187.174 212.293 187.28 212.348 187.4C212.403 187.52 212.426 187.65 212.416 187.78C212.416 188.015 212.416 188.225 212.416 188.47C212.35 188.701 212.195 188.902 211.981 189.038C211.767 189.174 211.507 189.235 211.247 189.21L211.34 189.125C211.29 190.412 211.642 191.685 212.356 192.795C212.99 193.577 213.566 194.397 214.081 195.25C214.406 195.788 214.635 196.37 214.758 196.975C214.787 197.13 214.802 197.288 214.802 197.445C214.818 197.57 214.813 197.625 214.802 197.625Z" fill="#263238"/>
<path d="M210.914 189.1C209.118 189.273 207.306 189.273 205.509 189.1C207.306 188.927 209.118 188.927 210.914 189.1Z" fill="#263238"/>
<path d="M214.261 199.715C213.971 199.583 213.65 199.521 213.326 199.533C213.003 199.545 212.688 199.632 212.41 199.785C211.858 200.094 211.26 200.332 210.636 200.49C209.867 200.553 209.098 200.377 208.452 199.99C207.813 199.604 207.139 199.27 206.437 198.99C205.743 198.775 204.996 198.743 204.283 198.897C203.569 199.052 202.918 199.387 202.402 199.865V213.295C202.402 213.295 203.205 215.59 208.878 215.23C214.551 214.87 214.108 212.575 214.108 212.575L214.261 199.715Z" fill="#D88484"/>
<g opacity="0.5">
<path opacity="0.5" d="M214.261 199.715C213.971 199.583 213.65 199.521 213.326 199.533C213.003 199.545 212.688 199.632 212.41 199.785C211.858 200.094 211.26 200.332 210.636 200.49C209.867 200.553 209.098 200.377 208.452 199.99C207.813 199.604 207.139 199.27 206.437 198.99C205.743 198.775 204.996 198.743 204.283 198.897C203.569 199.052 202.918 199.387 202.402 199.865V213.295C202.402 213.295 203.205 215.59 208.878 215.23C214.551 214.87 214.108 212.575 214.108 212.575L214.261 199.715Z" fill="white"/>
</g>
<path d="M223.691 140.77C223.504 140.7 223.301 140.675 223.101 140.696C222.9 140.717 222.709 140.783 222.544 140.89C222.462 140.94 222.375 141 222.293 141.06C219.521 142.937 216.152 143.926 212.705 143.875C205.995 143.875 200.437 140.43 199.443 135.93V135.08C199.451 134.995 199.44 134.909 199.41 134.828C199.381 134.747 199.333 134.673 199.27 134.61C199.207 134.547 199.13 134.496 199.045 134.462C198.96 134.427 198.867 134.41 198.774 134.41C198.681 134.41 198.589 134.427 198.503 134.462C198.418 134.496 198.341 134.547 198.278 134.61C198.215 134.673 198.167 134.747 198.138 134.828C198.108 134.909 198.097 134.995 198.105 135.08V137.46C198.109 137.516 198.122 137.572 198.143 137.625C197.682 138.559 197.439 139.57 197.428 140.595C197.428 145.79 203.434 150.01 210.865 150.01C217.095 150.01 222.331 147.045 223.86 143.01C223.879 142.992 223.89 142.969 223.893 142.945C224.07 142.623 224.168 142.27 224.182 141.91C224.223 141.697 224.198 141.478 224.112 141.277C224.025 141.076 223.879 140.9 223.691 140.77Z" fill="#D88484"/>
<g opacity="0.3">
<path opacity="0.3" d="M198.941 138.25C198.941 138.25 205.269 151.58 222.419 142.25C222.419 142.25 218.001 146.45 212.241 147.47C207.021 148.385 199.29 145.69 198.941 138.25Z" fill="black"/>
</g>
<path d="M224.16 141.44C224.057 141.67 223.647 141.735 223.249 141.58C222.85 141.425 222.61 141.11 222.702 140.88C222.795 140.65 223.216 140.59 223.614 140.745C224.013 140.9 224.27 141.21 224.16 141.44Z" fill="#263238"/>
<path d="M230.554 55.5C230.509 55.5073 230.463 55.5073 230.418 55.5H230.03H228.594L223.773 55.54H223.734V55.505C223.696 55.27 223.658 55.005 223.614 54.775C223.281 52.635 222.986 50.725 222.79 49.475H222.817H221.179C221.141 49.4793 221.103 49.4793 221.065 49.475H221.179H221.523H222.806H222.834V49.5C223.036 50.745 223.347 52.655 223.696 54.79C223.734 55.04 223.773 55.29 223.811 55.52L223.767 55.485H228.588H230.549L230.554 55.5Z" fill="#263238"/>
<path d="M223.565 54.25C223.565 54.25 223.565 54.25 223.603 54.25H223.702H224.089H225.542L230.543 54.205L230.499 54.24C230.641 53.465 230.8 52.63 230.958 51.77C231.04 51.325 231.122 50.885 231.204 50.47L231.247 50.52H225.351H223.008C222.981 50.52 222.97 50.52 222.97 50.52H223.134H223.603H225.351L231.247 50.475H231.302V50.525L231.062 51.82C230.898 52.685 230.74 53.52 230.598 54.32V54.35H230.559H225.558H223.582L223.565 54.25Z" fill="#263238"/>
<path d="M225.498 57.21C225.498 57.21 225.498 57.155 225.46 57.06C225.418 56.9303 225.33 56.8174 225.209 56.74C225.122 56.6837 225.021 56.6475 224.916 56.6344C224.81 56.6214 224.703 56.6319 224.603 56.665C224.481 56.7069 224.376 56.7818 224.302 56.8796C224.228 56.9774 224.189 57.0935 224.189 57.2125C224.189 57.3315 224.228 57.4476 224.302 57.5454C224.376 57.6432 224.481 57.7181 224.603 57.76C224.703 57.7951 224.811 57.8062 224.917 57.7922C225.023 57.7782 225.124 57.7396 225.209 57.68C225.327 57.6009 225.413 57.4885 225.454 57.36C225.487 57.265 225.487 57.21 225.493 57.21C225.507 57.2609 225.507 57.3141 225.493 57.365C225.459 57.5088 225.372 57.6376 225.247 57.73C225.153 57.7969 225.043 57.8414 224.926 57.8598C224.808 57.8781 224.688 57.8696 224.575 57.835C224.434 57.7909 224.311 57.7074 224.224 57.5962C224.137 57.485 224.091 57.3517 224.091 57.215C224.091 57.0783 224.137 56.945 224.224 56.8338C224.311 56.7226 224.434 56.6391 224.575 56.595C224.688 56.5584 224.809 56.5484 224.928 56.5659C225.046 56.5833 225.158 56.6277 225.252 56.695C225.378 56.7848 225.465 56.9123 225.498 57.055C225.514 57.1057 225.514 57.1593 225.498 57.21Z" fill="#263238"/>
<path d="M229.866 57.185C229.866 57.185 229.866 57.13 229.828 57.04C229.787 56.9098 229.699 56.7966 229.577 56.72C229.49 56.6625 229.39 56.6256 229.284 56.6125C229.178 56.5994 229.07 56.6106 228.971 56.645C228.88 56.6713 228.797 56.7157 228.728 56.775C228.659 56.8342 228.605 56.9069 228.57 56.9876C228.535 57.0683 228.521 57.1551 228.527 57.2417C228.533 57.3283 228.561 57.4126 228.607 57.4883C228.653 57.564 228.717 57.6294 228.795 57.6796C228.872 57.7298 228.961 57.7636 229.054 57.7786C229.147 57.7937 229.243 57.7894 229.334 57.7663C229.426 57.7432 229.51 57.7018 229.582 57.645C229.701 57.5632 229.788 57.4496 229.833 57.32C229.861 57.225 229.861 57.17 229.866 57.17C229.88 57.2209 229.88 57.2741 229.866 57.325C229.835 57.4685 229.75 57.5976 229.626 57.69C229.521 57.7653 229.396 57.8124 229.264 57.8262C229.132 57.8399 228.998 57.8197 228.878 57.7678C228.758 57.7158 228.656 57.6343 228.584 57.5322C228.511 57.4302 228.471 57.3117 228.468 57.19C228.468 57.0538 228.513 56.9209 228.598 56.8091C228.683 56.6973 228.804 56.6121 228.943 56.565C229.055 56.5284 229.176 56.5183 229.293 56.5358C229.411 56.5533 229.521 56.5978 229.615 56.665C229.743 56.7526 229.831 56.8811 229.861 57.025C229.879 57.0768 229.881 57.1323 229.866 57.185Z" fill="#263238"/>
<path d="M231.28 51.5377C232.323 51.3314 232.986 50.3896 232.761 49.4341C232.536 48.4785 231.507 47.8711 230.464 48.0774C229.421 48.2836 228.757 49.2254 228.982 50.181C229.208 51.1365 230.236 51.7439 231.28 51.5377Z" fill="#D88484"/>
<path d="M231.111 49.135V50.48H230.767V49.385H230.472V49.135H231.111Z" fill="white"/>
<path d="M215.954 212.795H159.514C155.328 212.795 151.935 215.902 151.935 219.735V223.065C151.935 226.898 155.328 230.005 159.514 230.005H215.954C220.139 230.005 223.532 226.898 223.532 223.065V219.735C223.532 215.902 220.139 212.795 215.954 212.795Z" fill="#D88484"/>
<g opacity="0.3">
<path opacity="0.3" d="M215.954 212.795H159.514C155.328 212.795 151.935 215.902 151.935 219.735V223.065C151.935 226.898 155.328 230.005 159.514 230.005H215.954C220.139 230.005 223.532 226.898 223.532 223.065V219.735C223.532 215.902 220.139 212.795 215.954 212.795Z" fill="black"/>
</g>
<path d="M213.175 212.795H156.735C152.549 212.795 149.156 215.902 149.156 219.735V223.065C149.156 226.898 152.549 230.005 156.735 230.005H213.175C217.36 230.005 220.753 226.898 220.753 223.065V219.735C220.753 215.902 217.36 212.795 213.175 212.795Z" fill="#D88484"/>
<path d="M182.801 220.455C182.801 221.335 182.102 221.87 180.95 221.87H179.858V223.105H179.225V219.035H180.961C182.102 219.035 182.801 219.57 182.801 220.455ZM182.167 220.455C182.167 219.87 181.742 219.54 180.928 219.54H179.836V221.365H180.928C181.742 221.365 182.167 221.035 182.167 220.455Z" fill="white"/>
<path d="M186.344 222.085H184.002L183.516 223.085H182.861L184.876 219.015H185.504L187.518 223.085H186.852L186.344 222.085ZM186.12 221.62L185.165 219.62L184.204 221.62H186.12Z" fill="white"/>
<path d="M189.593 221.695V223.105H188.965V221.685L187.202 219.035H187.879L189.298 221.18L190.729 219.035H191.357L189.593 221.695Z" fill="white"/>
<path d="M166.082 151.705C166.244 150.746 166.197 149.768 165.944 148.826C165.692 147.883 165.238 146.996 164.609 146.216C163.98 145.435 163.189 144.776 162.281 144.276C161.372 143.777 160.365 143.447 159.317 143.305C159.202 143.264 159.075 143.255 158.954 143.28C158.833 143.305 158.723 143.362 158.637 143.445C158.552 143.528 158.496 143.632 158.476 143.744C158.456 143.857 158.474 143.972 158.526 144.075C158.717 145.945 159.55 147.71 160.906 149.119C162.262 150.528 164.07 151.507 166.071 151.915" fill="#455A64"/>
<path d="M154.829 165.28C156.855 169.105 159.743 171.68 163.374 171.805C164.095 171.805 164.641 171.395 165.329 171.355C165.731 171.439 166.119 171.573 166.481 171.755C166.673 171.83 166.878 171.872 167.087 171.88C170.811 171.695 173.988 169.295 176.129 165.28C179.104 159.655 178.187 153.615 174.076 151.78C173.535 151.533 172.97 151.332 172.389 151.18C171.724 151.01 171.036 150.936 170.347 150.96C168.743 151.053 167.165 151.379 165.673 151.925L165.471 151.995C162.129 150.64 159.465 150.635 156.871 151.78C152.76 153.615 151.848 159.655 154.829 165.28Z" fill="#D88484"/>
<path d="M154.9 159.585C154.707 159.232 154.592 158.848 154.562 158.455C154.44 157.504 154.565 156.539 154.927 155.641C155.29 154.742 155.879 153.935 156.647 153.285C156.947 153.002 157.308 152.778 157.707 152.63C157.734 152.665 157.324 152.91 156.784 153.415C156.088 154.075 155.548 154.86 155.199 155.721C154.851 156.581 154.701 157.499 154.758 158.415C154.813 159.14 154.949 159.57 154.9 159.585Z" fill="#FAFAFA"/>
<path d="M155.654 162.255C155.577 162.255 155.446 162.005 155.359 161.665C155.271 161.325 155.266 161.03 155.359 161.01C155.452 160.99 155.566 161.26 155.654 161.605C155.741 161.95 155.73 162.24 155.654 162.255Z" fill="#FAFAFA"/>
<path d="M174.584 142.5C174.584 142.55 173.808 142.82 172.651 143.455C171.976 143.83 171.331 144.249 170.723 144.71C169.996 145.286 169.324 145.919 168.714 146.6C168.099 147.288 167.551 148.024 167.076 148.8C166.702 149.435 166.381 150.096 166.115 150.775C165.662 151.945 165.531 152.705 165.476 152.695C165.472 152.513 165.494 152.332 165.542 152.155C165.571 151.944 165.617 151.735 165.678 151.53C165.745 151.256 165.827 150.986 165.924 150.72C166.164 150.018 166.473 149.337 166.847 148.685C167.765 147.085 169.028 145.671 170.559 144.53C171.179 144.069 171.84 143.658 172.536 143.3C172.803 143.159 173.078 143.033 173.36 142.92C173.568 142.825 173.781 142.742 173.999 142.67C174.186 142.593 174.382 142.536 174.584 142.5Z" fill="#263238"/>
<path d="M225.149 90.175C221.813 85.915 214.731 82.995 208.976 83.78C204.313 84.415 200.185 86.4 197.925 90.64C197.775 90.9169 197.699 91.2228 197.705 91.5319C197.711 91.8411 197.798 92.1444 197.959 92.4163C198.119 92.6883 198.349 92.921 198.628 93.0948C198.907 93.2686 199.228 93.3784 199.563 93.415C207.332 94.2643 215.185 94.2408 222.948 93.345C224.149 93.205 225.569 92.9 225.651 91.545C225.658 91.0493 225.481 90.5661 225.149 90.175Z" fill="#D88484"/>
<path d="M206.727 89.965C206.699 89.965 206.459 89.77 206.142 89.37C205.72 88.8405 205.42 88.2385 205.258 87.6C205.121 86.9646 205.063 86.3173 205.083 85.67C205.062 85.4016 205.086 85.1319 205.154 84.87C205.247 85.1246 205.291 85.3918 205.285 85.66C205.324 86.291 205.408 86.919 205.536 87.54C205.694 88.1505 205.955 88.7344 206.312 89.27C206.482 89.4844 206.621 89.718 206.727 89.965Z" fill="#263238"/>
<path d="M211.673 89.755C211.586 89.755 211.706 88.545 211.537 87.075C211.368 85.605 210.991 84.45 211.062 84.425C211.503 85.2429 211.76 86.1341 211.815 87.045C211.965 87.948 211.917 88.8693 211.673 89.755Z" fill="#263238"/>
<path d="M216.762 89.0651C216.686 89.0351 217.068 88.2251 217.161 87.1651C217.253 86.1051 217.04 85.25 217.122 85.235C217.397 85.8541 217.507 86.524 217.445 87.1897C217.382 87.8554 217.148 88.4981 216.762 89.0651Z" fill="#263238"/>
<g opacity="0.3">
<path opacity="0.3" d="M210.756 84L210.8 84.0756L210.756 84Z" fill="black"/>
</g>
<g opacity="0.3">
<path opacity="0.3" d="M210.805 84.055C210.295 84.9106 210.1 85.8937 210.247 86.859C210.395 87.8243 210.877 88.7204 211.624 89.415C212.107 87.598 211.814 85.6807 210.805 84.055Z" fill="black"/>
</g>
<g opacity="0.3">
<path opacity="0.3" d="M206.055 89.215C205.525 88.3353 205.209 87.3616 205.127 86.36C205.133 85.9177 205.062 85.4774 204.919 85.055C204.345 85.7091 204.062 86.5379 204.128 87.375C204.205 88.2545 204.656 89.0712 205.383 89.65C205.492 89.743 205.623 89.8115 205.766 89.85C205.837 89.8661 205.913 89.8618 205.982 89.8377C206.052 89.8136 206.111 89.7708 206.153 89.715C206.251 89.56 206.153 89.37 206.055 89.215Z" fill="black"/>
</g>
<g opacity="0.3">
<path opacity="0.3" d="M217.226 85.63C217.207 85.4553 217.152 85.2855 217.062 85.13C217.016 85.0544 216.948 84.9925 216.865 84.9517C216.781 84.9109 216.687 84.893 216.593 84.9C216.336 84.94 216.211 85.205 216.134 85.435C215.705 86.4216 215.575 87.4962 215.757 88.545C215.817 88.78 215.987 89.045 216.254 89.045C216.522 89.045 216.593 88.845 216.686 88.68C217.209 87.74 217.398 86.6734 217.226 85.63Z" fill="black"/>
</g>
<path d="M153.688 117.645V118.115H153.311V117.65C152.908 117.641 152.517 117.519 152.192 117.3L152.394 116.88C152.662 117.06 152.98 117.169 153.311 117.195V116.36C152.804 116.245 152.258 116.095 152.258 115.51C152.258 115.085 152.596 114.71 153.311 114.65V114.15H153.688V114.615C154.016 114.63 154.334 114.717 154.616 114.87L154.425 115.295C154.199 115.173 153.948 115.097 153.688 115.07V115.915C154.196 116.025 154.747 116.175 154.747 116.755C154.747 117.21 154.403 117.575 153.688 117.645ZM153.311 115.85V115.105C152.989 115.15 152.847 115.305 152.847 115.485C152.847 115.665 153.044 115.78 153.311 115.85ZM154.163 116.82C154.163 116.615 153.961 116.515 153.688 116.445V117.185C154.021 117.14 154.163 117 154.163 116.82Z" fill="#263238"/>
<path d="M157.483 114.68V117.61H156.888V115.135H156.211V114.68H157.483Z" fill="#263238"/>
<path d="M158.848 117.29C158.84 117.417 158.805 117.541 158.744 117.655L158.509 118.245H158.138L158.324 117.6C158.257 117.575 158.201 117.532 158.163 117.476C158.125 117.421 158.106 117.356 158.111 117.29C158.104 117.242 158.109 117.194 158.125 117.148C158.14 117.102 158.166 117.059 158.201 117.023C158.236 116.987 158.279 116.959 158.327 116.939C158.375 116.919 158.427 116.909 158.479 116.909C158.532 116.909 158.584 116.919 158.632 116.939C158.68 116.959 158.722 116.987 158.757 117.023C158.792 117.059 158.818 117.102 158.834 117.148C158.849 117.194 158.854 117.242 158.848 117.29Z" fill="#263238"/>
<path d="M161.561 116.71C161.561 117.21 161.157 117.655 160.295 117.655C159.865 117.661 159.444 117.542 159.094 117.315L159.345 116.89C159.615 117.081 159.948 117.183 160.289 117.18C160.71 117.18 160.966 117.01 160.966 116.73C160.966 116.45 160.764 116.275 160.104 116.275H159.334L159.498 114.68H161.376V115.135H159.978L159.907 115.815H160.213C161.185 115.815 161.561 116.19 161.561 116.71Z" fill="#263238"/>
<path d="M161.905 116.145C161.905 115.18 162.484 114.645 163.243 114.645C164.002 114.645 164.581 115.19 164.581 116.145C164.581 117.1 164.008 117.645 163.243 117.645C162.479 117.645 161.905 117.11 161.905 116.145ZM163.986 116.145C163.986 115.435 163.68 115.11 163.243 115.11C162.806 115.11 162.506 115.435 162.506 116.145C162.506 116.855 162.806 117.18 163.243 117.18C163.68 117.18 163.986 116.85 163.986 116.145Z" fill="#263238"/>
<path d="M177.816 121.345C177.816 121.42 171.946 121.475 164.712 121.475C157.477 121.475 151.608 121.42 151.608 121.345C151.608 121.27 157.477 121.215 164.712 121.215C171.946 121.215 177.816 121.275 177.816 121.345Z" fill="#263238"/>
<path d="M163.8 123.3C163.8 123.375 161.07 123.43 157.712 123.43C154.354 123.43 151.619 123.375 151.619 123.3C151.619 123.225 154.349 123.17 157.712 123.17C161.075 123.17 163.8 123.23 163.8 123.3Z" fill="#263238"/>
<path d="M199.645 105.655V106.125H199.29V105.66C198.897 105.645 198.518 105.525 198.198 105.315L198.4 104.89C198.666 105.075 198.984 105.186 199.317 105.21V104.37C198.81 104.26 198.264 104.105 198.264 103.525C198.264 103.1 198.602 102.725 199.317 102.66V102.19H199.694V102.655C200.022 102.666 200.342 102.753 200.622 102.91L200.431 103.33C200.205 103.209 199.954 103.132 199.694 103.105V103.95C200.202 104.065 200.753 104.21 200.753 104.795C200.704 105.22 200.382 105.59 199.645 105.655ZM199.268 103.865V103.12C198.941 103.165 198.804 103.315 198.804 103.5C198.804 103.685 199.001 103.795 199.29 103.865H199.268ZM200.12 104.83C200.12 104.625 199.918 104.53 199.645 104.46V105.2C199.978 105.155 200.12 105 200.12 104.83Z" fill="#263238"/>
<path d="M204.652 105.165V105.625H202.288V105.26L203.56 104.155C203.871 103.88 203.926 103.71 203.926 103.545C203.926 103.28 203.724 103.125 203.33 103.125C203.188 103.118 203.046 103.142 202.916 103.195C202.786 103.248 202.672 103.329 202.582 103.43L202.167 103.135C202.313 102.971 202.498 102.84 202.708 102.753C202.919 102.666 203.149 102.626 203.38 102.635C204.078 102.635 204.526 102.955 204.526 103.475C204.52 103.657 204.467 103.836 204.372 103.997C204.278 104.157 204.143 104.295 203.98 104.4L203.123 105.15L204.652 105.165Z" fill="#263238"/>
<path d="M205.771 105.305C205.762 105.43 205.727 105.552 205.667 105.665L205.433 106.255H205.061L205.247 105.615C205.18 105.59 205.123 105.547 205.084 105.492C205.045 105.436 205.025 105.371 205.028 105.305C205.028 105.215 205.068 105.128 205.137 105.065C205.207 105.001 205.301 104.965 205.4 104.965C205.498 104.965 205.593 105.001 205.662 105.065C205.732 105.128 205.771 105.215 205.771 105.305Z" fill="#263238"/>
<path d="M208.523 105.165V105.625H206.159V105.26L207.431 104.155C207.742 103.88 207.797 103.71 207.797 103.545C207.797 103.28 207.595 103.125 207.202 103.125C207.059 103.118 206.918 103.142 206.788 103.195C206.657 103.248 206.543 103.329 206.454 103.43L206.039 103.135C206.184 102.97 206.37 102.838 206.582 102.752C206.794 102.665 207.025 102.625 207.256 102.635C207.95 102.635 208.397 102.955 208.397 103.475C208.391 103.657 208.338 103.836 208.244 103.997C208.149 104.157 208.014 104.295 207.851 104.4L206.994 105.15L208.523 105.165Z" fill="#263238"/>
<path d="M211.193 104.725C211.193 105.225 210.789 105.665 209.926 105.665C209.496 105.673 209.075 105.554 208.725 105.325L208.976 104.905C209.246 105.093 209.576 105.194 209.915 105.19C210.341 105.19 210.592 105.02 210.592 104.745C210.592 104.47 210.396 104.285 209.735 104.285H208.96L209.129 102.69H211.007V103.15H209.631L209.56 103.825H209.866C210.816 103.825 211.193 104.205 211.193 104.725Z" fill="#263238"/>
<path d="M223.773 109.36C223.773 109.43 217.903 109.49 210.669 109.49C203.434 109.49 197.565 109.43 197.565 109.36C197.565 109.29 203.44 109.23 210.669 109.23C217.898 109.23 223.773 109.29 223.773 109.36Z" fill="#263238"/>
<path d="M209.768 111.315C209.768 111.385 207.038 111.445 203.674 111.445C200.311 111.445 197.587 111.385 197.587 111.315C197.587 111.245 200.316 111.185 203.674 111.185C207.032 111.185 209.768 111.245 209.768 111.315Z" fill="#263238"/>
<path d="M152.64 178.5V178.97H152.263V178.5C151.86 178.49 151.47 178.368 151.144 178.15L151.351 177.73C151.616 177.913 151.933 178.022 152.263 178.045V177.21C151.755 177.095 151.215 176.945 151.215 176.365C151.215 175.935 151.553 175.565 152.263 175.5V175.025H152.64V175.5C152.967 175.515 153.286 175.602 153.568 175.755L153.382 176.18C153.154 176.059 152.902 175.983 152.64 175.955V176.8C153.148 176.915 153.699 177.06 153.699 177.64C153.699 178.06 153.361 178.43 152.64 178.5ZM152.263 176.705V175.96C151.941 176.01 151.804 176.16 151.804 176.345C151.804 176.53 152.001 176.63 152.263 176.7V176.705ZM153.115 177.675C153.115 177.47 152.913 177.375 152.64 177.3V178.045C152.973 178 153.115 177.85 153.115 177.67V177.675Z" fill="#263238"/>
<path d="M155.326 177C155.326 176.035 155.905 175.5 156.664 175.5C157.423 175.5 158.002 176.04 158.002 177C158.002 177.96 157.428 178.5 156.664 178.5C155.899 178.5 155.326 177.96 155.326 177ZM157.406 177C157.406 176.295 157.101 175.965 156.664 175.965C156.227 175.965 155.927 176.295 155.927 177C155.927 177.705 156.227 178.035 156.664 178.035C157.101 178.035 157.406 177.705 157.406 177Z" fill="#263238"/>
<path d="M159.083 178.145C159.074 178.27 159.039 178.392 158.979 178.505L158.744 179.095H158.378L158.558 178.455C158.493 178.429 158.438 178.385 158.4 178.33C158.362 178.275 158.343 178.21 158.345 178.145C158.339 178.097 158.344 178.049 158.36 178.003C158.375 177.957 158.401 177.914 158.436 177.878C158.471 177.842 158.514 177.814 158.562 177.794C158.61 177.774 158.661 177.764 158.714 177.764C158.767 177.764 158.819 177.774 158.866 177.794C158.914 177.814 158.957 177.842 158.992 177.878C159.027 177.914 159.053 177.957 159.069 178.003C159.084 178.049 159.089 178.097 159.083 178.145Z" fill="#263238"/>
<path d="M161.796 177.56C161.796 178.06 161.392 178.505 160.529 178.505C160.1 178.513 159.678 178.394 159.328 178.165L159.579 177.74C159.848 177.93 160.179 178.032 160.519 178.03C160.944 178.03 161.196 177.86 161.196 177.58C161.196 177.3 160.999 177.125 160.338 177.125H159.563L159.732 175.53H161.616V176H160.24L160.169 176.68H160.475C161.419 176.665 161.796 177.04 161.796 177.56Z" fill="#263238"/>
<path d="M162.162 177C162.162 176.035 162.741 175.5 163.5 175.5C164.259 175.5 164.837 176.04 164.837 177C164.837 177.96 164.264 178.5 163.5 178.5C162.735 178.5 162.162 177.96 162.162 177ZM164.242 177C164.242 176.295 163.937 175.965 163.5 175.965C163.063 175.965 162.763 176.295 162.763 177C162.763 177.705 163.063 178.035 163.5 178.035C163.937 178.035 164.22 177.705 164.22 177H164.242Z" fill="#263238"/>
<path d="M176.773 182.2C176.773 182.27 170.898 182.33 163.669 182.33C156.44 182.33 150.565 182.27 150.565 182.2C150.565 182.13 156.434 182.07 163.669 182.07C170.903 182.07 176.773 182.125 176.773 182.2Z" fill="#263238"/>
<path d="M162.763 184.155C162.763 184.225 160.033 184.285 156.675 184.285C153.317 184.285 150.587 184.225 150.587 184.155C150.587 184.085 153.317 184.025 156.675 184.025C160.033 184.025 162.763 184.08 162.763 184.155Z" fill="#263238"/>
<path d="M197.516 162.63V163.1H197.144V162.635C196.739 162.625 196.347 162.503 196.02 162.285L196.227 161.865C196.494 162.048 196.812 162.158 197.144 162.18V161.345C196.636 161.23 196.09 161.08 196.09 160.5C196.09 160.07 196.429 159.7 197.144 159.635V159.16H197.516V159.625C197.843 159.64 198.162 159.727 198.444 159.88L198.258 160.305C198.03 160.183 197.778 160.107 197.516 160.08V160.925C198.023 161.04 198.575 161.185 198.575 161.765C198.575 162.195 198.236 162.565 197.516 162.63ZM197.144 160.835V160.09C196.817 160.14 196.68 160.29 196.68 160.475C196.68 160.66 196.877 160.765 197.144 160.835ZM197.991 161.805C197.991 161.6 197.789 161.505 197.516 161.43V162.175C197.849 162.125 197.991 162 197.991 161.805Z" fill="#263238"/>
<path d="M201.31 159.665V162.595H200.715V160.12H200.038V159.665H201.31Z" fill="#263238"/>
<path d="M202.681 162.28C202.672 162.405 202.637 162.527 202.577 162.64L202.342 163.23H201.971L202.151 162.59C202.086 162.564 202.03 162.52 201.992 162.465C201.954 162.41 201.935 162.345 201.938 162.28C201.938 162.19 201.977 162.103 202.047 162.04C202.116 161.976 202.211 161.94 202.309 161.94C202.408 161.94 202.502 161.976 202.572 162.04C202.642 162.103 202.681 162.19 202.681 162.28Z" fill="#263238"/>
<path d="M203.008 161.13C203.008 160.165 203.587 159.63 204.346 159.63C205.105 159.63 205.684 160.17 205.684 161.13C205.684 162.09 205.138 162.63 204.346 162.63C203.554 162.63 203.008 162.095 203.008 161.13ZM205.089 161.13C205.089 160.425 204.783 160.095 204.346 160.095C203.909 160.095 203.609 160.425 203.609 161.13C203.609 161.835 203.909 162.165 204.346 162.165C204.783 162.165 205.089 161.84 205.089 161.13Z" fill="#263238"/>
<path d="M206.088 161.13C206.088 160.165 206.666 159.63 207.425 159.63C208.184 159.63 208.763 160.17 208.763 161.13C208.763 162.09 208.19 162.63 207.425 162.63C206.661 162.63 206.088 162.095 206.088 161.13ZM208.168 161.13C208.168 160.425 207.862 160.095 207.425 160.095C206.989 160.095 206.688 160.425 206.688 161.13C206.688 161.835 206.989 162.165 207.425 162.165C207.862 162.165 208.168 161.84 208.168 161.13Z" fill="#263238"/>
<path d="M221.676 166.335C221.676 166.405 215.801 166.465 208.572 166.465C201.343 166.465 195.468 166.405 195.468 166.335C195.468 166.265 201.337 166.2 208.572 166.2C215.807 166.2 221.676 166.26 221.676 166.335Z" fill="#263238"/>
<path d="M207.638 168.29C207.638 168.36 204.908 168.42 201.55 168.42C198.193 168.42 195.463 168.36 195.463 168.29C195.463 168.22 198.193 168.155 201.55 168.155C204.908 168.155 207.638 168.215 207.638 168.29Z" fill="#263238"/>
<path d="M201.889 54.265C201.889 54.335 195.561 54.395 187.758 54.395C179.956 54.395 173.623 54.335 173.623 54.265C173.623 54.195 179.951 54.135 187.758 54.135C195.566 54.135 201.889 54.19 201.889 54.265Z" fill="#D88484"/>
<path d="M17.7996 209.525C16.9549 209.557 16.1462 209.847 15.5028 210.349C14.8594 210.851 14.4185 211.536 14.2506 212.295C13.8958 213.515 13.6169 214.752 13.4152 216C13.4152 216 10.2102 218.64 13.4152 219.345C16.6202 220.05 17.7832 216.095 17.7832 216.095L18.2746 209.505L17.7996 209.525Z" fill="#FFBE9D"/>
<path d="M49.8935 159C49.8935 159 59.9071 128.205 60.9281 126.88C62.6098 124.685 78.8206 118.085 78.8206 118.085L83.1886 109.965L110.112 106L116.789 113.87L135.555 126.5L134.245 170.06L133.546 200.475L137.101 238.445L51.87 238.3L55.7248 230.3L59.7706 161.24L49.8935 159Z" fill="#D88484"/>
<path d="M61.4414 154.845C61.4165 154.764 61.4055 154.679 61.4086 154.595C61.4086 154.4 61.4086 154.165 61.3649 153.88C61.3649 153.26 61.3049 152.38 61.283 151.255C61.2394 149.035 61.2394 145.97 61.3431 142.585C61.4468 139.2 61.6434 136.14 61.829 133.925C61.9164 132.82 62.0038 131.925 62.0747 131.31L62.1566 130.6C62.1649 130.517 62.1814 130.435 62.2058 130.355C62.2213 130.438 62.2213 130.522 62.2058 130.605C62.2058 130.795 62.2058 131.03 62.173 131.315C62.1348 131.975 62.0802 132.86 62.0147 133.94C61.8836 136.155 61.7198 139.21 61.6161 142.595C61.5124 145.98 61.4796 149.035 61.4741 151.255C61.4741 152.335 61.4741 153.22 61.4741 153.88C61.4741 154.165 61.4741 154.38 61.4741 154.595C61.4763 154.679 61.4652 154.763 61.4414 154.845Z" fill="#263238"/>
<g opacity="0.3">
<path opacity="0.3" d="M80.7479 146C80.7273 145.655 80.8372 145.314 81.0592 145.035C81.433 144.615 81.9455 144.318 82.5196 144.189C83.0936 144.059 83.6982 144.103 84.2423 144.315C85.6674 144.94 86.3772 146.44 86.6666 147.865C86.9778 149.425 86.9341 151.035 87.2563 152.595C87.5784 154.155 88.3483 155.745 89.8498 156.55C91.7007 157.55 94.1304 157.1 96.0742 157.94C98.968 159.185 99.6396 162.63 99.787 165.56C100.06 171.105 99.787 176.655 99.5358 182.2L97.8651 217.61L96.3417 235.375L88.5012 238.425L78.1271 176L80.7479 146Z" fill="black"/>
</g>
<path d="M82.992 140.94C82.9332 140.986 82.8643 141.02 82.79 141.04C82.5767 141.11 82.3479 141.13 82.1239 141.1C81.7136 141.033 81.331 140.865 81.0173 140.614C80.7036 140.363 80.4708 140.038 80.3439 139.675C80.1755 139.177 80.1215 138.653 80.1856 138.135C80.2579 137.555 80.3636 136.979 80.5022 136.41C80.7643 135.2 81.0482 133.88 81.354 132.495C81.9655 129.72 82.5334 127.21 82.9592 125.395L83.5052 123.25C83.5581 122.985 83.6329 122.724 83.7291 122.47C83.7179 122.739 83.6795 123.007 83.6144 123.27C83.4998 123.825 83.3578 124.555 83.1831 125.435C82.8064 127.255 82.2658 129.77 81.6543 132.545C81.3431 133.93 81.0482 135.25 80.7807 136.455C80.5132 137.66 80.2347 138.75 80.5568 139.62C80.667 139.96 80.8736 140.266 81.1557 140.509C81.4377 140.751 81.785 140.921 82.1621 141C82.4402 141.036 82.7236 141.016 82.992 140.94Z" fill="#263238"/>
<path d="M85.7548 129.355C85.7548 129.38 85.5309 129.38 85.1596 129.485C84.6387 129.643 84.1807 129.939 83.8438 130.335C83.5904 130.616 83.4202 130.953 83.3494 131.312C83.2787 131.671 83.3098 132.04 83.4397 132.385C83.5825 132.813 83.8624 133.191 84.2432 133.472C84.624 133.752 85.0879 133.921 85.5749 133.956C86.0618 133.992 86.5492 133.893 86.9737 133.671C87.3982 133.45 87.7401 133.117 87.9552 132.715C88.1432 132.394 88.2379 132.034 88.2303 131.67C88.2226 131.306 88.1129 130.949 87.9115 130.635C87.6493 130.193 87.2478 129.834 86.7594 129.605C86.41 129.445 86.2134 129.415 86.2134 129.39C86.2134 129.365 86.268 129.39 86.3718 129.39C86.5261 129.409 86.6768 129.448 86.8195 129.505C87.3576 129.712 87.8079 130.074 88.1026 130.535C88.3114 130.853 88.4401 131.21 88.4793 131.58C88.5222 132.009 88.4273 132.44 88.2063 132.82C87.9722 133.269 87.5947 133.643 87.1237 133.892C86.6527 134.14 86.1105 134.252 85.5686 134.213C85.0267 134.173 84.5106 133.984 84.0886 133.67C83.6666 133.356 83.3585 132.933 83.205 132.455C83.0515 132.047 83.0325 131.607 83.1504 131.19C83.2765 130.754 83.5279 130.356 83.8783 130.039C84.2287 129.721 84.6655 129.496 85.1433 129.385C85.2946 129.348 85.4508 129.331 85.6074 129.335C85.6574 129.334 85.7073 129.34 85.7548 129.355Z" fill="#263238"/>
<path d="M94.9221 161.19L45.6947 153.03L22.7136 157.65L74.1359 166.125L94.9221 161.19Z" fill="#D88484"/>
<g opacity="0.6">
<path opacity="0.6" d="M94.9221 161.19L45.6947 153.03L22.7136 157.65L74.1359 166.125L94.9221 161.19Z" fill="black"/>
</g>
<path d="M63.4452 180.85C64.1113 172.54 66.6011 151.435 68.4684 143.28C69.0144 140.84 69.6696 138.345 71.1984 136.28C72.7272 134.215 75.4245 132.705 78.1108 133.085C80.5132 133.425 82.446 135.21 83.4179 137.25C84.3675 139.314 84.7913 141.549 84.6573 143.785C84.1932 153.865 83.2432 165.155 83.2541 174.5" fill="#455A64"/>
<path d="M80.1146 161.06C79.5171 161.265 78.9084 161.442 78.291 161.59C75.3525 162.422 72.5402 163.589 69.9208 165.065C69.3927 165.395 68.8459 165.698 68.2828 165.975C68.2828 165.975 68.4084 165.85 68.6704 165.66C68.9325 165.47 69.3202 165.215 69.8116 164.91C71.1018 164.126 72.4583 163.437 73.8684 162.85C75.2789 162.263 76.7399 161.783 78.2363 161.415C78.8096 161.275 79.2792 161.175 79.6013 161.12C79.7689 161.08 79.9414 161.06 80.1146 161.06Z" fill="#263238"/>
<path d="M80.9336 151.47C80.9336 151.51 80.1965 151.66 79.0171 151.995C75.9387 152.861 73.0633 154.245 70.5378 156.075C69.5713 156.775 69.0089 157.255 68.9762 157.225C69.0782 157.088 69.1973 156.962 69.3311 156.85C69.5713 156.62 69.9371 156.305 70.4231 155.935C71.6588 154.967 73.0085 154.129 74.4471 153.435C75.8862 152.743 77.4041 152.198 78.9735 151.81C79.4462 151.689 79.9255 151.59 80.4094 151.515C80.5806 151.475 80.7574 151.46 80.9336 151.47Z" fill="#263238"/>
<path d="M79.8307 143.75C79.8307 143.795 79.2464 143.82 78.3237 143.975C77.124 144.179 75.9608 144.534 74.8675 145.03C73.777 145.531 72.7666 146.167 71.8645 146.92C71.1711 147.5 70.7725 147.92 70.7725 147.885C70.7725 147.85 70.8381 147.76 70.9964 147.565C71.2209 147.289 71.4673 147.028 71.7335 146.785C73.5005 145.156 75.802 144.102 78.2855 143.785C78.6582 143.738 79.034 143.714 79.4103 143.715C79.6833 143.72 79.8252 143.73 79.8307 143.75Z" fill="#263238"/>
<path d="M73.71 167.79C73.7075 167.805 73.7075 167.82 73.71 167.835V196.685C73.71 197.95 72.618 199.255 70.5487 200.245C68.4793 201.235 65.5255 201.91 61.8127 201.915H61.7635C54.3106 201.915 49.8553 199.22 49.8553 196.685V167.835C49.8566 167.82 49.8566 167.805 49.8553 167.79C49.8553 167.79 49.8553 167.755 49.8553 167.735C49.8553 164.915 52.1321 161.97 54.4144 159.06C55.9432 157.12 56.309 154.32 56.38 152.68C56.38 152.48 56.38 152.305 56.38 152.145H56.1725C55.9555 152.162 55.737 152.139 55.5298 152.078C55.3225 152.017 55.1307 151.919 54.9654 151.789C54.8002 151.659 54.6649 151.5 54.5675 151.322C54.47 151.143 54.4124 150.949 54.398 150.75V149.53C54.411 149.33 54.4676 149.135 54.5645 148.955C54.6613 148.776 54.7964 148.616 54.9617 148.485C55.1271 148.354 55.3194 148.255 55.5274 148.193C55.7353 148.131 55.9547 148.108 56.1725 148.125H67.3655C67.6981 148.115 68.0272 148.19 68.3163 148.341C68.6055 148.492 68.8433 148.713 69.0035 148.98C69.0929 149.152 69.1395 149.34 69.14 149.53V150.75C69.1256 150.949 69.0678 151.144 68.97 151.323C68.8722 151.502 68.7364 151.661 68.5706 151.791C68.4048 151.921 68.2123 152.019 68.0044 152.08C67.7965 152.141 67.5774 152.163 67.36 152.145H67.158C67.158 152.305 67.158 152.48 67.158 152.68C67.229 154.32 67.5948 157.12 69.1291 159.06C71.4059 161.97 73.6718 164.915 73.6882 167.735C73.71 167.755 73.71 167.78 73.71 167.79Z" fill="#FAFAFA"/>
<path d="M73.71 167.79C73.7173 167.692 73.7173 167.593 73.71 167.495C73.6901 167.207 73.6518 166.919 73.5954 166.635C73.3333 165.538 72.8934 164.483 72.2904 163.505C71.3212 161.952 70.2452 160.458 69.069 159.03C68.3738 158.088 67.8775 157.035 67.6057 155.925C67.282 154.688 67.1134 153.422 67.1034 152.15V152.06H67.2017C67.6156 152.085 68.0283 151.997 68.3865 151.805C68.5666 151.71 68.7216 151.579 68.8405 151.423C68.9593 151.266 69.0392 151.088 69.0745 150.9C69.0745 150.515 69.0745 150.08 69.0745 149.665C69.0934 149.465 69.059 149.263 68.9744 149.078C68.8898 148.892 68.7574 148.728 68.5885 148.6C68.2317 148.335 67.7807 148.2 67.3218 148.22H62.79H56.3417C56.077 148.199 55.8104 148.229 55.5598 148.311C55.3093 148.392 55.0806 148.521 54.8894 148.69C54.707 148.863 54.5854 149.083 54.5399 149.32C54.5258 149.575 54.5258 149.83 54.5399 150.085C54.5399 150.34 54.5399 150.63 54.5399 150.865C54.5785 151.108 54.6965 151.335 54.8785 151.515C55.0735 151.697 55.3107 151.836 55.5725 151.923C55.8343 152.009 56.114 152.041 56.3909 152.015H56.5219V152.14C56.5129 153.316 56.3739 154.489 56.107 155.64C55.8421 156.837 55.3306 157.978 54.6 159C53.8301 160 53.0384 161 52.3068 162.06C51.5496 163.113 50.9268 164.242 50.4504 165.425C50.2188 166.026 50.0702 166.651 50.0081 167.285C49.9699 167.91 50.0081 168.58 50.0081 169.23V181.38C50.0081 186.235 50.0081 190.98 50.0081 195.56C49.9785 196.12 50.0078 196.681 50.0955 197.235C50.249 197.763 50.5436 198.247 50.9527 198.645C51.7759 199.446 52.7752 200.078 53.8847 200.5C54.974 200.918 56.1088 201.228 57.2699 201.425C58.4071 201.622 59.5587 201.741 60.7152 201.78C62.9422 201.884 65.1741 201.697 67.3436 201.225C68.3799 200.994 69.3852 200.658 70.3412 200.225C71.2668 199.821 72.0947 199.251 72.7764 198.55C73.0949 198.206 73.3378 197.809 73.4916 197.38C73.6063 196.947 73.6468 196.5 73.6117 196.055V193.395C73.6117 191.66 73.6117 189.99 73.6117 188.395C73.6117 182.035 73.6445 176.895 73.6554 173.315C73.6663 169.735 73.7046 167.785 73.7046 167.785C73.7211 167.906 73.7211 168.029 73.7046 168.15C73.7046 168.4 73.7046 168.755 73.7046 169.215C73.7046 170.16 73.7046 171.54 73.7046 173.315C73.7046 176.885 73.7046 182.035 73.7482 188.395C73.7482 189.985 73.7482 191.655 73.7482 193.395V196.735C73.7412 196.974 73.7008 197.211 73.6281 197.44C73.4672 197.897 73.2093 198.32 72.8692 198.685C72.1709 199.413 71.3182 200.003 70.363 200.42C69.3919 200.853 68.3722 201.189 67.3218 201.42C65.1563 201.895 62.9289 202.09 60.7043 202C59.535 201.963 58.3704 201.844 57.2208 201.645C56.0394 201.444 54.8846 201.129 53.7755 200.705C52.6263 200.281 51.5907 199.635 50.7398 198.81C50.2995 198.389 49.9821 197.873 49.817 197.31C49.7196 196.736 49.6867 196.155 49.7187 195.575V169.24C49.7187 168.58 49.7187 167.94 49.7187 167.275C49.7849 166.62 49.9389 165.975 50.1774 165.355C50.6611 164.152 51.295 163.004 52.0666 161.935C52.7982 160.87 53.6008 159.865 54.3707 158.87C55.0768 157.87 55.5713 156.757 55.8285 155.59C56.0917 154.459 56.2325 153.307 56.2489 152.15L56.3745 152.265C56.0626 152.29 55.7485 152.252 55.4548 152.152C55.1611 152.053 54.8953 151.895 54.6764 151.69C54.4584 151.476 54.319 151.205 54.2779 150.915C54.2779 150.62 54.2779 150.375 54.2779 150.105C54.2618 149.837 54.2618 149.568 54.2779 149.3C54.3345 149.019 54.4808 148.76 54.6983 148.555C54.914 148.364 55.1715 148.217 55.4539 148.124C55.7363 148.031 56.0371 147.994 56.3363 148.015H62.7845H67.289C67.7966 147.998 68.2936 148.151 68.6868 148.445C68.8772 148.592 69.0261 148.778 69.1212 148.989C69.2162 149.2 69.2545 149.428 69.2328 149.655C69.2328 150.085 69.2328 150.48 69.2328 150.915C69.1946 151.128 69.1053 151.331 68.9712 151.51C68.8372 151.688 68.6617 151.836 68.4575 151.945C68.0676 152.152 67.6184 152.246 67.1689 152.215L67.2563 152.135C67.3054 154.77 67.8623 157.21 69.1618 158.94C70.3302 160.375 71.3953 161.878 72.3505 163.44C72.9503 164.428 73.3778 165.496 73.6172 166.605C73.6698 166.901 73.7008 167.2 73.71 167.5C73.7289 167.596 73.7289 167.694 73.71 167.79Z" fill="#263238"/>
<path d="M66.5465 152.075C64.8908 152.207 63.2282 152.25 61.567 152.205C59.904 152.25 58.2395 152.207 56.582 152.075C58.2397 151.946 59.904 151.903 61.567 151.945C63.2282 151.903 64.8906 151.946 66.5465 152.075Z" fill="#263238"/>
<path d="M72.7163 171.645C71.7116 171.045 70.3848 171.31 69.3038 171.78C68.2227 172.25 67.2017 172.905 66.0278 173.075C64.6464 173.28 63.2541 172.775 62.0256 172.14C60.7971 171.505 59.6341 170.72 58.3128 170.285C57.0313 169.888 55.6539 169.829 54.3374 170.114C53.0208 170.398 51.8179 171.015 50.8653 171.895V196.665C50.8653 196.665 52.3505 200.89 62.8118 200.23C73.2732 199.57 72.4487 195.335 72.4487 195.335L72.7163 171.645Z" fill="#D88484"/>
<path d="M45.0013 154.785C45.1561 153.871 45.1114 152.937 44.8698 152.039C44.6282 151.141 44.1946 150.295 43.5939 149.551C42.9933 148.807 42.2376 148.18 41.3704 147.705C40.5033 147.23 39.542 146.917 38.5421 146.785C38.3589 146.742 38.1647 146.761 37.9961 146.84C37.7723 146.98 37.7668 147.275 37.7887 147.52C37.9716 149.307 38.7674 150.995 40.062 152.342C41.3567 153.689 43.0838 154.627 44.9959 155.02" fill="#455A64"/>
<path d="M34.2615 167.74C36.1943 171.39 38.9735 173.85 42.4187 173.97C43.1067 173.97 43.6254 173.575 44.2806 173.54C44.6615 173.621 45.0288 173.749 45.3726 173.92C45.5453 173.99 45.7302 174.03 45.9186 174.04C49.4785 173.865 52.5088 171.575 54.5509 167.74C57.3955 162.375 56.5165 156.61 52.5907 154.855C52.0755 154.62 51.5383 154.427 50.9855 154.28C50.3503 154.124 49.6937 154.053 49.0363 154.07C47.5185 154.169 46.0266 154.483 44.6137 155L44.4226 155.065C41.2285 153.775 38.6841 153.765 36.2326 154.86C32.285 156.61 31.4114 162.375 34.2615 167.74Z" fill="#D88484"/>
<path d="M34.327 162.305C34.1407 161.968 34.0293 161.601 33.9994 161.225C33.8833 160.317 34.0033 159.396 34.3496 158.539C34.696 157.681 35.2588 156.911 35.9923 156.29C36.2817 156.021 36.627 155.809 37.0079 155.665C37.0079 155.705 36.6475 155.935 36.1288 156.42C35.466 157.055 34.9513 157.807 34.6164 158.63C34.284 159.454 34.1427 160.333 34.2014 161.21C34.2451 161.88 34.398 162.29 34.327 162.305Z" fill="#FAFAFA"/>
<path d="M35.0532 164.855C34.9768 164.855 34.8457 164.62 34.7638 164.29C34.6819 163.96 34.6765 163.685 34.7638 163.67C34.8512 163.655 34.9659 163.905 35.0532 164.235C35.1406 164.565 35.1297 164.84 35.0532 164.855Z" fill="#FAFAFA"/>
<path d="M53.1149 146C53.1149 146.045 52.3832 146.305 51.2749 146.915C50.63 147.27 50.0166 147.672 49.4403 148.115C48.7392 148.663 48.0907 149.265 47.502 149.915C46.9251 150.574 46.41 151.277 45.9623 152.015C45.6034 152.621 45.2967 153.251 45.045 153.9C44.6137 155.01 44.499 155.74 44.428 155.73C44.4282 155.562 44.4483 155.394 44.4881 155.23C44.5148 155.029 44.5587 154.83 44.6191 154.635C44.6821 154.371 44.7605 154.111 44.8539 153.855C45.0836 153.186 45.3778 152.537 45.733 151.915C46.6057 150.385 47.8117 149.036 49.2765 147.95C49.8712 147.506 50.509 147.113 51.182 146.775C51.4605 146.62 51.728 146.515 51.9683 146.41C52.1662 146.319 52.3705 146.241 52.5798 146.175C52.75 146.097 52.9296 146.039 53.1149 146Z" fill="#263238"/>
<path d="M22.7136 157.65L16.5274 229.11L74.185 241.875C74.185 241.875 94.2997 235.63 94.5727 235.205C94.8457 234.78 94.9221 161.205 94.9221 161.205L74.1359 166.14L22.7136 157.65Z" fill="#D88484"/>
<g opacity="0.4">
<path opacity="0.4" d="M22.7136 157.65L16.5274 229.11L74.185 241.875C74.185 241.875 94.2997 235.63 94.5727 235.205C94.8457 234.78 94.9221 161.205 94.9221 161.205L74.1359 166.14L22.7136 157.65Z" fill="black"/>
</g>
<path d="M113.148 74.41L109.932 116.115C109.679 119.397 108.077 122.468 105.448 124.711C102.82 126.954 99.3609 128.201 95.7684 128.2C93.8234 128.204 91.8983 127.842 90.1125 127.136C88.3268 126.43 86.7185 125.396 85.3873 124.097C84.0562 122.798 83.0307 121.263 82.3745 119.586C81.7182 117.91 81.4452 116.127 81.5724 114.35C81.8563 110.38 82.1184 107.125 82.1184 107.125C82.1184 107.125 71.0947 105.555 70.9582 95.46C70.8817 89.63 71.9792 76.4 72.9183 66.265C73.2266 62.9546 74.8826 59.8713 77.5579 57.6271C80.2331 55.3829 83.732 54.1417 87.36 54.15H94.0157C96.7377 54.2964 99.3999 54.9409 101.845 56.0455C104.291 57.15 106.469 58.6922 108.253 60.5808C110.036 62.4695 111.388 64.6664 112.229 67.0416C113.07 69.4169 113.382 71.9223 113.148 74.41Z" fill="#FFBE9D"/>
<path d="M82.1402 107.125C82.1402 107.125 89.0908 107.5 96.4946 103.24C96.4946 103.24 92.9456 110.585 81.9437 109.675L82.1402 107.125Z" fill="#EB996E"/>
<path d="M75.0095 76.675C75.206 76.865 76.3963 76.055 78.0944 76.06C79.7924 76.065 81.0264 76.84 81.212 76.65C81.2994 76.565 81.1028 76.23 80.5623 75.865C79.8285 75.4025 78.9579 75.1565 78.0671 75.16C77.1855 75.1611 76.3265 75.4146 75.6101 75.885C75.0914 76.255 74.9167 76.595 75.0095 76.675Z" fill="#263238"/>
<path d="M93.366 78.46C93.3642 78.8353 93.5214 79.1965 93.8045 79.4679C94.0875 79.7392 94.4745 79.8995 94.8839 79.915C95.0852 79.9307 95.2879 79.9092 95.48 79.852C95.6722 79.7947 95.8498 79.7028 96.0025 79.5816C96.1552 79.4604 96.2798 79.3125 96.369 79.1464C96.4582 78.9804 96.5102 78.7997 96.5219 78.615C96.5264 78.239 96.3702 77.8763 96.0865 77.6044C95.8029 77.3325 95.4144 77.173 95.004 77.16C94.8025 77.1436 94.5995 77.1646 94.4071 77.2216C94.2146 77.2785 94.0366 77.3704 93.8838 77.4917C93.7309 77.6131 93.6063 77.7613 93.5174 77.9277C93.4284 78.094 93.3769 78.275 93.366 78.46Z" fill="#263238"/>
<path d="M76.5383 78.46C76.5352 78.8356 76.6919 79.1976 76.9752 79.4692C77.2586 79.7408 77.6463 79.9007 78.0562 79.915C78.2577 79.9314 78.4607 79.9104 78.6531 79.8535C78.8456 79.7965 79.0235 79.7046 79.1764 79.5833C79.3292 79.462 79.4539 79.3137 79.5428 79.1474C79.6318 78.981 79.6833 78.8 79.6942 78.615C79.7002 78.2395 79.5451 77.8768 79.2624 77.6048C78.9796 77.3327 78.5916 77.1731 78.1818 77.16C77.9797 77.1422 77.7758 77.1621 77.5824 77.2185C77.389 77.2749 77.21 77.3666 77.0564 77.4881C76.9028 77.6096 76.7777 77.7584 76.6886 77.9255C76.5996 78.0925 76.5484 78.2743 76.5383 78.46Z" fill="#263238"/>
<path d="M91.4933 76.68C91.6898 76.865 92.8855 76.055 94.5781 76.06C96.2707 76.065 97.5102 76.84 97.6958 76.65C97.7831 76.565 97.5866 76.23 97.0461 75.865C96.3123 75.4025 95.4416 75.1565 94.5508 75.16C93.6693 75.1611 92.8102 75.4146 92.0938 75.885C91.5751 76.255 91.4004 76.595 91.4933 76.68Z" fill="#263238"/>
<path d="M85.3452 88.18C85.3452 88.095 84.3024 87.93 82.6153 87.73C82.1839 87.685 81.7744 87.61 81.7034 87.34C81.6641 86.9309 81.7632 86.5207 81.9874 86.165L83.2704 83.165C85.0449 78.87 86.3335 75.34 86.1424 75.275C85.9513 75.21 84.357 78.64 82.5825 82.935C82.1275 83.9783 81.718 84.9833 81.354 85.95C81.0858 86.4292 81.0067 86.9785 81.1301 87.505C81.1936 87.645 81.2909 87.7699 81.4148 87.8704C81.5387 87.9709 81.686 88.0442 81.8454 88.085C82.0839 88.1447 82.3298 88.1766 82.577 88.18C84.2751 88.265 85.3398 88.27 85.3452 88.18Z" fill="#263238"/>
<path d="M90.3302 89.255C90.0572 89.255 90.0518 90.925 88.4793 92.12C86.9068 93.315 84.9467 93.12 84.9303 93.365C84.9303 93.47 85.3671 93.69 86.197 93.715C87.2739 93.7276 88.3214 93.3931 89.1563 92.77C89.9557 92.1679 90.4702 91.3063 90.5923 90.365C90.6633 89.665 90.4558 89.245 90.3302 89.255Z" fill="#263238"/>
<path d="M91.0564 71.635C91.2257 72.055 92.9128 71.855 94.8784 72.075C96.844 72.295 98.4766 72.79 98.7387 72.415C98.8588 72.235 98.5749 71.835 97.9306 71.415C97.0692 70.9074 96.0887 70.5938 95.0695 70.5C94.0528 70.3869 93.0212 70.4983 92.0611 70.825C91.3513 71.105 90.9855 71.435 91.0564 71.635Z" fill="#263238"/>
<path d="M75.2443 72.235C75.5446 72.59 76.713 72.235 78.1162 72.205C79.5194 72.175 80.7043 72.445 80.9827 72.075C81.0974 71.895 80.9117 71.54 80.393 71.21C79.6963 70.8085 78.8846 70.6064 78.0618 70.6296C77.239 70.6528 76.4424 70.9001 75.7739 71.34C75.277 71.7 75.1132 72.065 75.2443 72.235Z" fill="#263238"/>
<path d="M109.429 82C109.62 81.925 117.008 79.95 116.768 86.85C116.527 93.75 109.009 92.105 109.003 91.91C108.998 91.715 109.429 82 109.429 82Z" fill="#FFBE9D"/>
<path d="M111.384 89.345C111.417 89.345 111.515 89.435 111.733 89.535C112.041 89.6655 112.391 89.6817 112.711 89.58C113.519 89.335 114.229 88.2 114.305 86.955C114.348 86.3645 114.244 85.7728 113.999 85.225C113.936 85.0069 113.816 84.8061 113.65 84.6398C113.484 84.4735 113.276 84.3466 113.044 84.27C112.894 84.2288 112.733 84.2373 112.589 84.294C112.445 84.3507 112.328 84.452 112.258 84.58C112.148 84.77 112.192 84.91 112.154 84.92C112.116 84.93 111.996 84.8 112.067 84.515C112.117 84.3459 112.226 84.1966 112.378 84.09C112.59 83.9527 112.853 83.897 113.109 83.935C113.417 84.0009 113.701 84.1374 113.935 84.3316C114.169 84.5258 114.345 84.7713 114.447 85.045C114.745 85.6536 114.878 86.3192 114.835 86.985C114.736 88.375 113.912 89.65 112.815 89.91C112.61 89.9574 112.396 89.9622 112.189 89.9241C111.983 89.886 111.788 89.806 111.619 89.69C111.384 89.5 111.384 89.36 111.384 89.345Z" fill="#EB996E"/>
<path d="M113.623 81.75C112.476 81.495 110.489 82.47 109.997 83.455C109.506 84.44 109.397 85.555 108.905 86.54C108.414 87.525 107.311 88.42 106.175 88.17C105.785 88.0575 105.435 87.8525 105.16 87.5759C104.885 87.2993 104.694 86.9608 104.608 86.595C104.45 85.8605 104.45 85.1046 104.608 84.37C105.05 81.145 105.788 77.95 105.929 74.705C106.071 71.46 105.569 68.085 103.707 65.32C101.845 62.555 98.4274 60.52 94.8893 60.78C92.547 60.955 90.4012 62.075 88.0753 62.37C86.6912 62.5378 85.2835 62.4148 83.9591 62.0102C82.6346 61.6056 81.4282 60.9301 80.4313 60.035C80.1747 59.805 79.0008 59.09 79.0008 59.09C79.0008 58.925 79.17 57.485 79.7925 56.96C84.4062 53.05 92.7272 51.96 98.826 53.365C104.925 54.77 110.641 58.71 113.262 63.945C115.883 69.18 115.108 76.445 113.661 81.75" fill="#263238"/>
<path d="M71.7335 64.445C72.7218 66.54 75.2443 67.76 77.7395 67.99C80.2347 68.22 82.6972 67.63 85.0941 66.99C87.4911 66.35 93.9284 65.39 96.4236 65.46C96.7949 65.46 97.2426 65.46 97.4446 65.175C97.7067 64.79 97.2863 64.325 96.8986 64.05C93.6226 61.69 85.6674 60.245 81.496 60.085C77.3245 59.925 72.9511 61.585 70.6906 64.78" fill="#263238"/>
<path d="M72.82 64.705C72.82 64.705 101.758 56.205 114.25 79.1C114.25 79.1 116.118 73.365 116.118 70.29C116.118 68.24 114.78 56.01 101.043 52.165C101.043 52.165 80.3439 44.935 72.82 64.705Z" fill="#D88484"/>
<g opacity="0.4">
<path opacity="0.4" d="M72.82 64.705C75.2258 62.3851 78.5239 61.0148 82.0147 60.885C90.5487 60.535 106.514 64.93 114.229 79.1C114.229 79.1 116.096 73.365 116.096 70.29C116.096 68.24 114.758 56.01 101.021 52.165C101.043 52.165 80.3439 44.935 72.82 64.705Z" fill="black"/>
</g>
<path d="M113.022 76.415C108.636 70.4343 102.887 65.3939 96.1724 61.64C89.544 57.835 78.553 54.075 70.98 52.23C68.7086 51.68 66.339 51.195 64.0185 51.565C61.698 51.935 59.4266 53.345 58.8533 55.435C58.1326 58.05 63.2213 62.085 65.5855 63.67C67.9194 65.0945 70.3363 66.4014 72.8255 67.585C72.8255 67.585 72.7599 62.735 81.2393 61.735C92.7654 60.375 113.022 76.415 113.022 76.415Z" fill="#D88484"/>
<path d="M89.3256 56.625C89.3256 56.625 85.1542 54.515 80.9718 54.025C81.6682 53.5222 82.4314 53.1022 83.2432 52.775C85.5151 53.1198 87.7123 53.795 89.7515 54.775L89.3256 56.625Z" fill="#FAFAFA"/>
<path d="M125.656 125.42C125.656 125.42 117.75 133.695 118.624 145.21C118.744 146.805 118.831 149.03 119.044 150.62C120.377 160.5 122.441 169.67 122.441 169.67H123.194L150.762 163.435C150.762 163.435 146.606 141.52 145.651 138.61C142.599 129.295 132.132 124.17 132.132 124.17L125.656 125.42Z" fill="#D88484"/>
<path d="M94.5727 235.205C94.5727 235.205 94.5727 235.08 94.5727 234.835C94.5727 234.59 94.5727 234.215 94.5727 233.735C94.5727 232.765 94.5727 231.345 94.5727 229.51C94.5727 225.825 94.5727 220.51 94.6054 213.85C94.6546 200.555 94.7255 182.055 94.8074 161.19L94.9822 161.315L84.499 163.815L74.2014 166.26L74.3051 166.135C74.4471 176.595 74.4089 186.465 74.3543 195.385C74.2997 204.305 74.2451 212.27 74.2014 218.93C74.1577 225.59 74.2014 230.93 74.2014 234.63C74.2014 236.47 74.2014 237.895 74.2014 238.87V239.97C74.2014 240.215 74.2014 240.34 74.2014 240.34C74.2014 240.34 74.2014 240.215 74.2014 239.97C74.2014 239.725 74.2014 239.35 74.2014 238.87C74.2014 237.87 74.1632 236.47 74.1304 234.63C74.0813 230.945 74.0485 225.59 74.054 218.93C74.0595 212.27 74.1141 204.3 74.1468 195.385C74.1796 186.47 74.2123 176.595 74.0649 166.14V166.035L74.1741 166.01L84.4662 163.565L94.9549 161.065L95.135 161.02V161.19C95.0149 182.055 94.9112 200.56 94.8402 213.85C94.791 220.49 94.7474 225.825 94.7201 229.51C94.7201 231.345 94.6873 232.765 94.6764 233.735C94.6764 234.235 94.6764 234.58 94.6764 234.835C94.6764 235.09 94.5727 235.205 94.5727 235.205Z" fill="#263238"/>
<path d="M81.8071 110.54C81.8071 110.54 80.7151 120.145 84.2423 121.64C88.2226 123.32 92.1921 121.675 94.6163 120.25C101.119 116.45 110.783 105.895 110.783 105.895L117.335 113.685C117.335 113.685 100.835 131.845 97.521 131.725C95.337 131.65 91.9791 129.725 89.877 128.37C88.7266 127.634 87.7018 126.746 86.8358 125.735L83.9802 122.41C80.4148 124.02 77.532 126.085 75.5391 128.73C75.5391 128.73 74.589 122.005 76.298 118.955C78.007 115.905 81.414 110.64 81.414 110.64L81.8071 110.54Z" fill="#D88484"/>
<path d="M76.096 119.215C76.0828 119.273 76.0607 119.328 76.0305 119.38C75.9814 119.5 75.9104 119.655 75.8176 119.85C75.5909 120.471 75.4282 121.111 75.3316 121.76C75.0147 124.151 75.0147 126.569 75.3316 128.96L75.1351 128.925C76.0536 127.504 77.2535 126.253 78.6732 125.235C80.2803 124.039 82.036 123.02 83.9038 122.2L83.9912 122.16L84.0567 122.23C85.2088 123.455 86.4264 124.73 87.7095 126.025C88.9928 127.382 90.4377 128.603 92.0174 129.665C92.772 130.154 93.5923 130.553 94.458 130.85C94.884 130.992 95.3224 131.101 95.7684 131.175C96.2051 131.24 96.649 131.255 97.0897 131.22C98.8642 131.07 100.366 130.14 101.611 129.16L112.907 118.13L116.183 114.965L117.062 114.13L117.292 113.915L117.379 113.85L117.314 113.93L117.095 114.16L116.249 115.02L113.027 118.235L101.813 129.325C101.166 129.852 100.459 130.315 99.7051 130.705C98.9156 131.115 98.0418 131.37 97.1389 131.455C96.6726 131.49 96.2035 131.475 95.7411 131.41C95.278 131.335 94.823 131.223 94.3816 131.075C93.4897 130.769 92.6439 130.361 91.8645 129.86C90.2621 128.788 88.7969 127.553 87.4965 126.18C86.208 124.88 84.9904 123.6 83.8438 122.37L84.0021 122.4C82.1524 123.213 80.4118 124.22 78.8151 125.4C77.4297 126.397 76.2547 127.617 75.348 129L75.1842 129.26L75.1515 128.965C74.8464 126.558 74.8758 124.125 75.2388 121.725C75.3508 121.075 75.5337 120.437 75.7848 119.82C75.8831 119.61 75.9705 119.46 76.0251 119.355C76.0454 119.307 76.0691 119.26 76.096 119.215Z" fill="#263238"/>
<g opacity="0.3">
<path opacity="0.3" d="M76.5001 127.31C76.3898 127.562 76.3695 127.839 76.4421 128.103C76.5147 128.366 76.6764 128.601 76.9041 128.775C77.1315 128.855 77.3785 128.876 77.6182 128.837C77.8579 128.797 78.0811 128.698 78.2636 128.55C78.6213 128.25 78.9302 127.905 79.1809 127.525C79.8339 126.663 80.6191 125.892 81.5123 125.235C82.3914 124.585 83.5981 124.035 84.6082 124.495C85.2398 124.877 85.7189 125.437 85.9732 126.09C87.3436 128.655 88.9871 131.265 91.6679 132.73C94.3488 134.195 97.7941 134.26 100.748 133.305C103.684 132.258 106.268 130.522 108.239 128.27C110.195 126.025 111.929 123.626 113.421 121.1C114.655 119.145 115.905 117.13 116.287 114.9C115.949 115.075 115.151 116.2 114.813 116.375C114.813 116.375 102.086 129.21 100.89 129.875C99.6941 130.54 96.3963 134.97 87.0542 125.375L83.9639 122.305C83.9639 122.305 78.078 124.92 76.5001 127.31Z" fill="black"/>
</g>
<path d="M110.588 155.001L96.5938 153.036L95.9457 156.905L109.94 158.871L110.588 155.001Z" fill="white"/>
<path d="M148.446 163.92L126.606 168.755L129.129 187.62L87.3054 216.385C85.6346 216.6 83.9202 216.845 82.9702 217.065C80.6824 217.565 76.642 222.84 75.5009 223.365L67.3491 229.125C67.3491 229.125 66.6338 231.745 70.3521 231.22C74.0704 230.695 78.2145 228.08 78.6458 228.08C79.0772 228.08 80.3767 228.875 79.7378 230.58C79.1918 232.08 76.9532 237.24 76.9532 237.24L74.185 241.89C74.185 241.89 86.1533 242.25 89.473 238.185C91.7444 235.425 98.755 227.6 98.755 227.6C98.755 227.6 147.988 205.42 150.942 200.775C154.966 194.455 148.446 163.92 148.446 163.92Z" fill="#FFBE9D"/>
<path d="M138.378 195.75C138.408 195.062 138.375 194.373 138.28 193.69C138.016 192.041 137.133 190.527 135.783 189.408C134.433 188.29 132.7 187.636 130.882 187.56C130.13 187.541 129.377 187.58 128.632 187.675C128.819 187.593 129.017 187.538 129.222 187.51C129.771 187.403 130.332 187.358 130.893 187.375C132.774 187.404 134.581 188.057 135.976 189.214C137.371 190.371 138.26 191.953 138.477 193.665C138.544 194.175 138.544 194.69 138.477 195.2C138.473 195.387 138.44 195.572 138.378 195.75Z" fill="#EB996E"/>
<path d="M84.0185 234.845C83.9756 235.273 83.8804 235.696 83.7345 236.105C83.4549 237.116 83.0481 238.095 82.5224 239.02C81.9987 239.967 81.2018 240.764 80.2183 241.325C79.9179 241.489 79.592 241.61 79.2519 241.685C79.1293 241.724 78.9983 241.736 78.8697 241.72C79.3004 241.568 79.7168 241.384 80.1146 241.17C81.0344 240.586 81.7842 239.805 82.2986 238.895C82.8021 237.982 83.2168 237.03 83.538 236.05C83.6596 235.636 83.8204 235.233 84.0185 234.845Z" fill="#EB996E"/>
<path d="M89.817 233.1C89.7344 233.52 89.5931 233.928 89.3966 234.315C88.9856 235.272 88.5078 236.204 87.966 237.105C87.4224 238.006 86.817 238.874 86.1533 239.705C85.9014 240.071 85.6006 240.407 85.2579 240.705C85.4684 240.325 85.7132 239.962 85.9895 239.62C86.4591 238.965 87.0815 238.045 87.7149 237C88.3482 235.955 88.856 235 89.2109 234.265C89.3756 233.861 89.5784 233.471 89.817 233.1Z" fill="#EB996E"/>
<path d="M89.6587 200.45C89.718 200.659 89.751 200.874 89.7569 201.09C89.8061 201.5 89.8443 202.09 89.8661 202.835C89.9688 206.694 89.3596 210.542 88.0643 214.215C87.8132 214.915 87.5948 215.48 87.4201 215.86C87.3455 216.063 87.2485 216.26 87.1307 216.445C87.1671 216.233 87.2294 216.025 87.3163 215.825C87.4583 215.435 87.6494 214.865 87.8623 214.16C88.4487 212.322 88.8939 210.45 89.1946 208.555C89.4899 206.66 89.6431 204.749 89.6532 202.835C89.6532 202.1 89.6532 201.505 89.6532 201.095C89.6329 200.88 89.6347 200.664 89.6587 200.45Z" fill="#263238"/>
<path d="M77.8268 206.455C78.0924 206.966 78.3222 207.492 78.5148 208.03C78.9188 209.03 79.4812 210.36 80.1528 211.835C80.8244 213.31 81.4468 214.635 81.9109 215.59C82.1843 216.098 82.4232 216.62 82.6262 217.155C82.2742 216.683 81.9742 216.181 81.7307 215.655C81.2175 214.715 80.5568 213.4 79.8907 211.92C79.2246 210.44 78.695 209.075 78.3401 208.075C78.1149 207.551 77.9431 207.008 77.8268 206.455Z" fill="#263238"/>
<path d="M74.6546 219.4C74.5445 219.443 74.4289 219.473 74.3106 219.49L73.3114 219.71C72.8746 219.805 72.345 219.915 71.7171 220.01C71.0892 220.105 70.3849 220.245 69.5877 220.335C68.7905 220.425 67.9497 220.55 66.9942 220.625C66.0387 220.7 65.0504 220.765 63.9967 220.82C59.4068 221.006 54.8091 220.686 50.303 219.865C49.271 219.66 48.2828 219.48 47.3764 219.25C46.4701 219.02 45.6238 218.82 44.8594 218.605C44.095 218.39 43.407 218.175 42.8064 217.99C42.2058 217.805 41.7144 217.625 41.2831 217.49L40.3276 217.14C40.2148 217.101 40.1054 217.054 40 217C40.1203 217.016 40.2379 217.046 40.3494 217.09L41.3213 217.395C41.7362 217.535 42.2549 217.705 42.8555 217.895C43.4561 218.085 44.1441 218.285 44.914 218.47C45.6838 218.655 46.5192 218.89 47.431 219.08C48.3428 219.27 49.3202 219.475 50.3521 219.67C52.5973 220.054 54.8625 220.331 57.1389 220.5C59.4173 220.65 61.7027 220.69 63.9857 220.62C65.0395 220.57 66.0387 220.535 66.9724 220.45C67.906 220.365 68.7687 220.285 69.5604 220.195C70.3521 220.105 71.0619 219.995 71.6898 219.905C72.3177 219.815 72.8528 219.73 73.2896 219.65L74.2997 219.48C74.4142 219.441 74.5333 219.414 74.6546 219.4Z" fill="#263238"/>
<path d="M72.5743 210.705C71.6708 210.402 70.8021 210.019 69.9808 209.56C69.1162 209.176 68.2935 208.717 67.5238 208.19C68.429 208.489 69.2981 208.873 70.1173 209.335C70.9842 209.715 71.8073 210.174 72.5743 210.705Z" fill="#263238"/>
<path d="M150.762 163.435L150.625 163.475L150.221 163.575L148.659 163.94L142.784 165.27L122.473 169.77L122.326 169.8V169.665C121.753 166.23 120.966 162.525 120.207 158.665C119.711 156.09 119.279 153.565 118.984 151.115C118.689 148.665 118.558 146.28 118.52 144.01C118.46 141.862 118.597 139.712 118.93 137.585C119.225 135.724 119.829 133.915 120.721 132.22C121.483 130.831 122.503 129.574 123.735 128.505C124.661 127.696 125.725 127.031 126.885 126.535C127.623 126.233 128.396 126.01 129.189 125.87L129.812 125.8C129.882 125.793 129.954 125.793 130.024 125.8C129.955 125.821 129.884 125.834 129.812 125.84L129.2 125.94C128.418 126.094 127.658 126.329 126.934 126.64C125.795 127.153 124.752 127.828 123.844 128.64C122.641 129.708 121.646 130.956 120.901 132.33C120.034 134.012 119.449 135.804 119.165 137.645C118.844 139.763 118.716 141.902 118.782 144.04C118.826 146.3 118.968 148.67 119.263 151.115C119.558 153.56 119.994 156.08 120.491 158.65C121.245 162.505 122.026 166.215 122.599 169.65L122.43 169.545L142.768 165.12L148.659 163.86L150.232 163.535L150.641 163.455C150.681 163.445 150.721 163.438 150.762 163.435Z" fill="#263238"/>
</svg>
