<svg width="178" height="165" viewBox="0 0 178 165" fill="none" xmlns="http://www.w3.org/2000/svg">
<path d="M0 82.5V165H89H178V82.5V-2.23517e-07H89H0V82.5ZM154.135 52.4333C154.118 64.0139 154.151 70.9958 154.25 71.0875C154.333 71.1639 155.025 71.2861 155.783 71.3472C161.799 71.8667 165.705 74.6778 167.155 79.5514C167.468 80.5903 167.518 81.1403 167.518 83.7222C167.518 86.3194 167.468 86.8542 167.155 87.9083C166.727 89.3139 165.87 90.9639 165.029 91.9875C164.37 92.7819 162.755 94.0653 161.898 94.4778C161.601 94.6153 161.354 94.7833 161.354 94.8444C161.354 94.9056 162.672 96.1736 164.271 97.6556L167.205 100.375H162.227H157.266L155.981 99.0764C155.289 98.3583 154.613 97.6556 154.514 97.5181C154.382 97.35 154.283 97.3347 154.201 97.4417C154.151 97.5333 154.118 105.478 154.135 115.103L154.184 132.611H89H23.8157V111.604V90.5972H24.2772C24.5244 90.5972 24.7222 90.5667 24.7222 90.5208C24.7222 90.475 24.3102 89.6806 23.8157 88.7639L22.9093 87.0833V84.3333V81.5833H24.3926C26.1067 81.5833 26.7 81.3847 27.1944 80.6208C27.623 79.9792 27.623 78.7722 27.2109 78.1306C26.733 77.4125 25.9748 77.1528 24.3267 77.1528H22.9093V74.4181V71.6681L23.3707 71.6222L23.8157 71.5764L23.8652 52.7389L23.8981 33.9167H89.0494H154.184L154.135 52.4333ZM18.4593 83.7222V95.7917H14.9157H11.3722V83.7222V71.6528H14.9157H18.4593V83.7222Z" fill="#360202" fill-opacity="0.95"/>
<path d="M25.0519 53.3194V71.6528H26.7C30.738 71.6528 33.5728 72.9055 35.0726 75.3347C36.523 77.7028 36.4076 80.8958 34.7594 83.0958C34.1331 83.9514 32.9959 84.8375 31.9411 85.2958C31.5126 85.4792 31.1665 85.6778 31.15 85.7236C31.15 85.7694 31.562 86.518 32.073 87.4042C32.5839 88.275 33.7376 90.2917 34.6441 91.8958C35.5506 93.4847 36.4406 95.0278 36.6219 95.2875L36.9515 95.7917L32.1883 95.7764H27.4417L26.1726 93.3778L24.9035 90.9792L24.9365 111.222L24.9694 131.465L88.967 131.511L152.948 131.542V113.911C152.948 98.3889 152.915 96.2653 152.701 96.1889C152.487 96.1278 152.454 95.6542 152.454 93.3014V90.4903L153.838 90.4139C156.162 90.2764 157.662 89.4208 158.502 87.725C159.409 85.9375 159.409 81.5069 158.502 79.7194C157.662 78.0236 156.162 77.168 153.838 77.0305L152.454 76.9542V74.143C152.454 71.7903 152.487 71.3167 152.701 71.2555C152.915 71.1792 152.948 69.0097 152.948 53.075V34.9861H89H25.0519V53.3194ZM78.2541 49.2555C79.7704 49.8055 80.957 50.4778 82.7535 51.8222C83.8248 52.6014 84.3852 52.9375 84.3852 52.7694C84.3852 52.6319 84.517 52.3264 84.6819 52.0667C85.5883 50.6305 89.5439 50.4472 92.1974 51.7305C94.8839 53.0292 97.2572 55.825 98.9713 59.7055L99.3174 60.5153L99.9602 60.0417C100.735 59.4764 101.147 59.3694 102.251 59.4764C103.256 59.568 105.811 60.4847 107.212 61.2639C108.201 61.8139 110.871 63.693 111.843 64.5486C112.585 65.1903 114.48 67.5736 114.991 68.5055C115.304 69.0861 115.436 69.5903 115.502 70.4611L115.585 71.6528H118.601C120.265 71.6528 121.633 71.6986 121.633 71.7444C121.633 71.8208 121.518 72.218 119.013 79.9792C118.205 82.5 116.969 86.35 116.277 88.5347C115.585 90.7194 114.843 93.0264 114.629 93.6528C114.431 94.2792 114.2 95.0278 114.134 95.2875L114.019 95.7917H109.75C107.41 95.7917 105.481 95.7458 105.481 95.6847C105.481 95.6389 106.223 93.6986 107.146 91.3764C108.069 89.0542 109.091 86.3958 109.437 85.4792C109.783 84.5472 110.854 81.8125 111.81 79.3833C112.766 76.9542 113.557 74.9222 113.557 74.8764C113.557 74.8305 112.915 74.6167 112.107 74.418C109.701 73.8222 107.772 73.1805 106.24 72.4472C105.432 72.0653 103.767 71.393 102.531 70.9653C101.295 70.5222 99.6306 69.9111 98.8394 69.6055C97.6528 69.1778 97.4056 69.1167 97.488 69.3305C97.7022 69.7583 98.0648 71.0875 98.0648 71.3778C98.0648 71.6069 98.2131 71.6528 99.1361 71.6528H100.207V72.9208V74.1889L99.4328 75.1667C98.79 76.0069 94.1752 82.0417 92.1644 84.7153C91.8513 85.1278 91.2085 85.9528 90.7306 86.5486C89.478 88.1375 88.6704 89.1917 86.0498 92.6444L83.6765 95.7917H79.4078H75.1556V94.5694V93.3625L77.7926 89.8792C79.243 87.9694 81.2702 85.2958 82.292 83.9514C83.3139 82.6069 84.5665 80.9722 85.0774 80.3L86.0004 79.093L85.7531 78.4819C85.4235 77.7486 85.5389 76.0833 86.0169 74.4028C86.1981 73.7764 86.33 73.2417 86.297 73.2264C86.2641 73.1958 85.5059 74.1278 84.6159 75.3042L82.9843 77.443L79.5231 77.4583H76.062L76.1115 74.7542C76.1444 73.2722 76.095 72.0042 76.0126 71.9278C75.9467 71.8667 74.8094 71.7444 73.4909 71.668C71.1506 71.5305 69.7167 71.2097 68.2004 70.4917C67.4752 70.1403 66.9148 69.2542 66.9148 68.4444C66.9313 66.9014 68.118 65.5569 70.1781 64.7778C70.8704 64.518 71.5956 64.243 71.7769 64.1667C72.8317 63.7542 76.1444 62.9444 76.8367 62.9292H77.2157L76.8367 62.6847C76.3587 62.3792 74.4304 61.5847 72.2713 60.8055C71.3648 60.4847 69.6178 59.8278 68.3981 59.3542C67.1785 58.8805 65.3161 58.2083 64.2778 57.8722C61.9044 57.093 61.4924 56.9097 61.3276 56.4819C61.1298 56.0083 61.2946 55.3208 61.6243 55.1528C61.9374 55 63.3878 55.4278 66.1731 56.4819C67.0796 56.8333 68.8926 57.5055 70.2111 57.9944C72.7822 58.9264 76.8202 60.5 77.8585 60.9736C78.2211 61.1264 78.5343 61.2486 78.5507 61.218C78.5837 61.2028 77.9739 60.4542 77.1993 59.5833C75.8313 58.025 75.4522 57.4597 73.9689 54.6944C73.2931 53.4569 73.2602 53.3347 73.2602 52.0055C73.2602 50.7222 73.2931 50.5694 73.7217 50.0653C74.6941 48.8736 76.3917 48.5833 78.2541 49.2555ZM57.9489 72.0653C57.85 72.4625 56.3831 77.0458 53.0704 87.3889C52.2793 89.8639 51.3398 92.7667 51.0102 93.8361L50.3839 95.7917H46.1317C43.7748 95.7917 41.863 95.7611 41.863 95.7458C41.863 95.7153 42.6541 93.6986 43.61 91.2694C44.5659 88.8403 45.9833 85.2347 46.758 83.2639C47.5326 81.293 48.7687 78.1305 49.5269 76.2361C50.2685 74.3417 50.9772 72.5389 51.1091 72.218L51.3233 71.6528H54.6856H58.0478L57.9489 72.0653ZM148.169 83.7375V95.5167L147.724 95.425C146.817 95.2264 144.938 94.2944 143.966 93.5764C142.021 92.1403 140.719 90.1847 140.06 87.725C139.746 86.6097 139.681 85.968 139.681 83.7222C139.681 81.4 139.73 80.8653 140.076 79.6736C141.065 76.1903 143.175 73.8222 146.471 72.4778C147.18 72.2028 147.855 71.9583 147.971 71.9583C148.119 71.9583 148.169 74.418 148.169 83.7375ZM65.4809 82.8055C67.3433 87.5569 69.2057 92.293 69.6013 93.3472C70.0133 94.4014 70.3924 95.3792 70.4583 95.5167C70.5737 95.7764 70.2935 95.7917 66.1072 95.7917H61.6572L61.2452 94.5236C61.0144 93.8361 60.7837 93.0875 60.7178 92.843L60.6189 92.4305H58.3444C57.0754 92.4305 56.0206 92.3847 55.9876 92.3083C55.9546 92.2472 56.3007 91.025 56.7622 89.6042L57.6028 87.0069L58.1961 86.9611L58.7894 86.9153L58.5422 85.9375C58.295 84.975 58.295 84.975 58.8719 83.0805C59.2015 82.0569 59.9596 79.6125 60.553 77.6875C61.9044 73.3486 61.7891 73.6542 61.9704 73.9444C62.0363 74.0667 63.6185 78.0542 65.4809 82.8055ZM128.045 80.3153C130.533 86.6403 132.775 92.3236 133.648 94.6L134.11 95.7917H129.693H125.276L124.93 94.6764C124.732 94.0805 124.501 93.3167 124.402 92.9958L124.221 92.4305H121.848C120.562 92.4305 119.491 92.3847 119.491 92.3389C119.491 92.1861 120.974 87.6486 121.139 87.2667C121.254 87.0069 121.436 86.9305 121.864 86.9305H122.441L122.144 85.968L121.848 85.0208L122.309 83.5694C122.556 82.775 122.952 81.4917 123.199 80.743C124.798 75.7014 125.144 74.6014 125.226 74.2805C125.259 74.0972 125.358 73.9444 125.408 73.9444C125.474 73.9444 126.66 76.8167 128.045 80.3153ZM100.372 92.6444C100.372 94.1111 100.422 95.4097 100.471 95.5472C100.57 95.7611 99.9437 95.7917 94.2906 95.7917H87.9946L88.7857 94.8139C90.1207 93.1486 92.1315 90.475 92.2304 90.2305C92.3128 90.0167 92.8402 89.9861 96.3507 89.9861H100.372V92.6444ZM79.243 98.5722C79.3089 98.8472 78.9463 99.0458 78.0893 99.2139C77.8256 99.275 77.6278 99.3819 77.6278 99.4583C77.6278 99.55 77.8256 99.6111 78.0893 99.6111C78.3365 99.6111 78.8144 99.6875 79.177 99.7792L79.8033 99.9472L79.7209 100.65C79.6715 101.032 79.5231 101.429 79.3748 101.521C79.2265 101.628 79.1111 101.781 79.1111 101.872C79.1111 102.315 78.0893 102.483 77.1828 102.178C76.7707 102.04 76.6389 101.903 76.6389 101.628C76.6389 101.322 76.7048 101.276 77.018 101.353C78.1057 101.643 78.2211 101.628 78.5013 101.246C78.9463 100.619 78.9133 100.497 78.2376 100.467C77.397 100.406 76.7378 99.9319 76.6719 99.3514C76.6059 98.8014 76.8202 98.618 77.7926 98.4194C78.7815 98.2055 79.177 98.2514 79.243 98.5722ZM89.5933 98.9083C90.2196 99.5194 90.7306 100.681 90.5822 101.2C90.4339 101.75 89.3956 102.361 88.6209 102.361C88.143 102.361 87.8628 102.254 87.5002 101.918C86.9563 101.414 86.9069 101.017 87.2694 100.054C87.4178 99.6875 87.4837 99.2292 87.4343 99.0458C87.3683 98.7861 87.4507 98.6639 87.7969 98.4805C88.4231 98.175 88.9835 98.3125 89.5933 98.9083ZM94.1257 98.4042C94.9333 98.6486 95.2959 99.0764 95.0817 99.5653C94.9828 99.7944 94.9828 100.024 95.0817 100.131C95.3948 100.497 95.4443 101.246 95.1641 101.506C94.8015 101.842 94.4389 101.567 94.4389 100.956C94.4389 100.604 94.373 100.512 94.1752 100.589C94.0269 100.635 93.7302 100.726 93.4994 100.772C93.2028 100.849 93.1369 100.94 93.2193 101.124C93.4665 101.674 93.4665 102.01 93.2028 102.208C92.9885 102.376 92.9061 102.376 92.6919 102.178C92.5106 102.01 92.4117 101.475 92.3457 100.176L92.2469 98.4194L92.6424 98.343C93.3346 98.2208 93.5489 98.2361 94.1257 98.4042ZM100.751 98.5417C100.834 98.6028 100.85 98.8014 100.801 98.9694C100.702 99.2597 100.586 99.275 99.4657 99.1986C98.4109 99.1222 98.2296 99.1375 98.2296 99.3514C98.2296 99.6569 98.6746 99.7486 99.268 99.5653C99.7954 99.3972 100.207 99.6264 100.207 100.085C100.207 100.329 100.076 100.375 99.5152 100.375C98.378 100.375 98.0648 100.512 98.0648 100.971C98.0648 101.2 97.9824 101.46 97.867 101.567C97.7352 101.689 97.7352 101.796 97.9 101.979C98.1637 102.285 98.0319 102.422 97.5869 102.285C97.2572 102.193 97.2407 102.101 97.2902 100.329C97.3396 98.5111 97.3561 98.4653 97.7517 98.3736C98.2791 98.2514 100.586 98.3736 100.751 98.5417ZM85.4565 98.7708C85.4565 99.0153 85.3246 99.0917 84.7148 99.1528L83.9896 99.2292L84.0391 100.787C84.072 102.3 84.072 102.361 83.7259 102.361C83.2809 102.361 83.248 102.254 83.1985 100.604L83.1491 99.2292L82.2426 99.1528C81.5833 99.0917 81.3361 99.0153 81.3361 98.8472C81.3361 98.725 81.468 98.6333 81.6328 98.6333C81.7811 98.6486 81.913 98.6028 81.913 98.5264C81.913 98.45 82.7041 98.4042 83.693 98.4347C85.3411 98.4653 85.4565 98.4805 85.4565 98.7708ZM100.224 101.689C100.537 102.04 100.109 102.361 99.3174 102.361C98.5263 102.361 98.312 102.254 98.1637 101.796C98.0483 101.475 98.0978 101.46 99.0372 101.46C99.68 101.475 100.092 101.551 100.224 101.689Z" fill="#360202" fill-opacity="0.95"/>
<path d="M76.1774 49.6375C76.2928 49.9278 77.7596 51.2722 78.2046 51.4861C78.6496 51.7 79.9517 53.075 81.9624 55.4736C82.8524 56.5278 84.6819 59.125 85.9839 61.1417C86.5278 61.9972 86.5443 62.0125 87.0387 61.8445C87.4837 61.707 87.5167 61.6458 87.4343 61.2028C87.2859 60.5458 86.5772 59.1097 86.2146 58.7431C86.0498 58.575 85.44 57.6736 84.8632 56.757C83.8248 55.0764 82.4733 53.6556 80.8252 52.4945C80.4461 52.2347 79.6715 51.6389 79.0946 51.1653C77.6772 50.0347 75.9632 49.1333 76.1774 49.6375Z" fill="#360202" fill-opacity="0.95"/>
<path d="M75.3039 49.9889C75.8313 51.2111 76.507 52.1736 77.7596 53.5181C79.4902 55.3361 79.7539 55.6875 80.6274 57.0625C81.4844 58.4069 82.6711 59.7972 84.2863 61.3097C85.5883 62.5319 85.6378 62.5625 86.0004 62.3486C86.1817 62.2569 86.0828 61.9514 85.5554 60.9736C85.1763 60.2861 84.7643 59.6139 84.6159 59.4611C84.2039 59.0333 83.5941 58.1625 83.3139 57.6125C83.182 57.3222 82.7865 56.8028 82.4404 56.4667C82.1107 56.1153 81.2372 55.1528 80.512 54.3125C78.9463 52.5097 78.4354 52.0208 77.8256 51.7306C77.5783 51.6083 76.985 51.0889 76.507 50.5847C75.6006 49.6222 75.0237 49.3472 75.3039 49.9889Z" fill="#360202" fill-opacity="0.95"/>
<path d="M77.9574 49.9125C78.1717 50.0653 78.798 50.5236 79.3419 50.9514C79.8693 51.3639 80.4956 51.8528 80.7428 52.0056C81.5669 52.5861 83.3139 54.1445 83.9896 54.9083C84.3687 55.3361 84.9456 56.1458 85.2587 56.7111C85.5884 57.2611 86.0993 58.025 86.3959 58.3917C86.8409 58.9417 87.4343 60.1333 87.9122 61.4472C87.9617 61.6 88.11 61.7222 88.2584 61.7222C88.588 61.7222 88.4726 61.0042 87.8958 59.5833C87.1706 57.7653 86.0334 56.1153 84.105 54.0986C82.1602 52.0667 80.0341 50.5542 78.1222 49.8667C77.5454 49.6528 77.5454 49.6528 77.9574 49.9125Z" fill="#360202" fill-opacity="0.95"/>
<path d="M74.5787 50.1264C74.1666 50.7222 75.4852 53.2889 77.4135 55.6875C77.9574 56.3597 78.6166 57.2 78.8803 57.5514C79.144 57.9028 79.8033 58.6667 80.3472 59.2472C80.8911 59.8125 81.7481 60.7903 82.2426 61.3861C83.0337 62.3486 84.7807 63.7083 85.2092 63.7083C85.2752 63.7083 85.3905 63.525 85.44 63.3111C85.5389 62.9597 85.407 62.7917 84.5005 61.9667C82.8524 60.4847 81.3031 58.7125 80.3142 57.1695C79.8198 56.375 79.2924 55.6264 79.144 55.4736C78.2376 54.6181 76.4905 52.6931 76.1279 52.1736C75.9137 51.8375 75.5511 51.1958 75.3368 50.7528C74.9248 49.9583 74.7764 49.8208 74.5787 50.1264Z" fill="#360202" fill-opacity="0.95"/>
<path d="M73.9359 51.2264C73.6722 52.1431 74.0348 53.0292 75.7324 55.6111C77.1993 57.8264 77.5948 58.3458 78.7815 59.507C79.3913 60.0875 80.133 60.9125 80.4461 61.3403C81.3196 62.5625 81.9459 63.0361 82.9513 63.3111C84.1544 63.632 84.1709 63.632 83.4457 63.0514C82.6382 62.4097 82.6876 62.4708 81.3196 60.7903C80.6604 59.9958 79.8528 59.1097 79.5232 58.8195C79.1935 58.5292 78.6496 57.9028 78.3365 57.4445C78.0069 56.9861 77.4959 56.3139 77.1828 55.9625C76.3093 54.9847 74.5128 52.1278 74.3974 51.5472C74.2656 50.9056 74.0678 50.7681 73.9359 51.2264Z" fill="#360202" fill-opacity="0.95"/>
<path d="M86.808 51.5931C86.5607 51.6542 86.6761 51.7764 87.3519 52.2042C88.9835 53.2278 91.5382 56.0542 92.6424 58.0861C92.9226 58.6056 93.5654 59.5986 94.0433 60.2861C94.5213 60.9736 95.197 62.0125 95.5267 62.6083C96.087 63.6472 96.153 63.7083 96.6804 63.7083C97.3232 63.7083 97.3067 63.7694 96.9935 62.5167C96.5485 60.7597 96.0046 59.7819 94.2741 57.5972C93.7796 56.9708 93.2522 56.2681 93.1204 56.0389C92.9885 55.8097 91.8843 54.6944 90.6976 53.5486C88.5385 51.5167 88.5056 51.4861 87.8133 51.5014C87.4178 51.5167 86.9728 51.5472 86.808 51.5931Z" fill="#360202" fill-opacity="0.95"/>
<path d="M90.3679 52.8153C94.1587 56.4514 96.7628 60.0417 97.2407 62.3028C97.3561 62.7917 97.4715 63.3111 97.5044 63.4792C97.5704 63.7847 98.6911 64.5486 98.8394 64.4111C98.8889 64.3653 98.8559 63.8306 98.757 63.2042C98.5592 61.8597 97.7352 60.1028 96.3837 58.1931C95.8728 57.4903 95.2629 56.5431 95.0322 56.1C94.1752 54.5264 90.4504 51.4861 89.3791 51.4861C89.0165 51.4861 89.1483 51.6542 90.3679 52.8153Z" fill="#360202" fill-opacity="0.95"/>
<path d="M85.5719 52.2958C85.3741 52.4944 85.2093 52.7236 85.2093 52.8C85.2093 52.8764 85.7037 53.3958 86.2971 53.9306C86.9069 54.4806 87.6485 55.3056 87.9782 55.7639C88.2913 56.2222 89.1813 57.2 89.9395 57.9486C90.9119 58.8806 91.4558 59.5681 91.7854 60.2403C92.9226 62.5625 93.3676 63.3417 93.895 63.8764L94.4554 64.4569L95.1146 64.1361C95.4608 63.9681 95.7574 63.8 95.7574 63.7542C95.7574 63.5708 94.2246 60.9583 93.6808 60.1944C93.3511 59.7361 92.8402 58.9417 92.56 58.4375C91.8843 57.2153 90.3021 55.1681 89.1813 54.0375C88.3078 53.1514 86.5278 51.9444 86.1158 51.9444C86.0169 51.9444 85.7696 52.0972 85.5719 52.2958Z" fill="#360202" fill-opacity="0.95"/>
<path d="M91.8843 52.4181C92.9226 53.1361 94.6532 54.9542 95.2959 55.9931C95.6585 56.5736 96.2848 57.5209 96.6804 58.0709C98.2791 60.2861 99.0372 62.0125 99.0867 63.5861C99.1196 64.1972 99.0702 64.8695 98.9878 65.0834C98.8724 65.4042 98.8889 65.4347 99.0702 65.2667C99.2185 65.1445 99.3174 64.625 99.3504 63.8764C99.4328 62.4861 99.1361 61.2945 98.3285 59.5986C98.0319 58.957 97.7352 58.3306 97.6858 58.2084C97.6198 58.0861 97.3891 57.7042 97.1584 57.3681C96.9441 57.032 96.6309 56.5584 96.4826 56.3139C96.0541 55.5959 92.9226 52.8 92.1315 52.4334L91.3898 52.082L91.8843 52.4181Z" fill="#360202" fill-opacity="0.95"/>
<path d="M84.9621 53.4722C84.8961 53.5639 85.028 53.8694 85.2422 54.1444C85.44 54.4347 85.9345 55.0611 86.3135 55.5653C87.0387 56.5431 88.3408 58.8042 89 60.2708C89.2967 60.9583 89.7911 61.5542 90.9778 62.7153C93.7302 65.3736 93.6148 65.2819 93.9609 64.9917C94.2576 64.7472 94.2411 64.7167 93.7137 64.1056C93.4006 63.7694 92.6589 62.5472 92.0491 61.4014C91.0932 59.5986 90.78 59.1708 89.6263 58.0403C88.9011 57.3375 88.0276 56.375 87.698 55.9167C87.0552 54.9847 86.7915 54.725 85.7532 53.8694C85.3246 53.5181 85.028 53.3653 84.9621 53.4722Z" fill="#360202" fill-opacity="0.95"/>
<path d="M74.4304 54.4347C74.4798 54.5875 74.5787 54.6639 74.6281 54.6181C74.6776 54.5722 74.6281 54.45 74.5128 54.3431C74.348 54.2056 74.3315 54.2208 74.4304 54.4347Z" fill="#360202" fill-opacity="0.95"/>
<path d="M74.9908 55.3819C74.9908 55.4583 75.1885 55.7333 75.4193 55.9931C75.65 56.2375 75.7654 56.3139 75.6665 56.1458C75.4358 55.6875 75.0072 55.2139 74.9908 55.3819Z" fill="#360202" fill-opacity="0.95"/>
<path d="M61.855 55.8708C61.8055 55.9931 61.822 56.1458 61.9044 56.2222C61.9868 56.2833 63.3218 56.8028 64.8546 57.3375C66.4039 57.8875 68.1344 58.5139 68.7278 58.7431C69.3211 58.9569 70.2111 59.2778 70.7055 59.4611C71.2 59.6292 72.6174 60.2403 73.837 60.8056C76.5235 62.0583 78.798 62.8222 79.6055 62.7611L80.1824 62.7153L79.5231 62.3028C79.1605 62.0736 77.9739 61.5389 76.8861 61.1264C75.7983 60.7139 74.0183 60.0111 72.9305 59.5833C71.8428 59.1403 70.3594 58.5903 69.6343 58.3458C68.9091 58.0861 68.1344 57.8111 67.9037 57.7347C67.673 57.6431 66.2391 57.1389 64.7228 56.6042C62.4978 55.8403 61.9209 55.7028 61.855 55.8708Z" fill="#360202" fill-opacity="0.95"/>
<path d="M77.6278 58.9875C77.8585 59.3847 80.2483 62.0278 80.3802 62.0278C80.4626 62.0278 80.1989 61.6305 79.7044 60.943C79.3254 60.4236 77.43 58.6361 77.6278 58.9875Z" fill="#360202" fill-opacity="0.95"/>
<path d="M101.13 59.9958C101.015 60.118 101.18 60.2555 102.68 61.2944C103.174 61.6458 103.718 62.0736 103.883 62.2417C104.938 63.3722 105.943 64.1972 106.685 64.518C108.217 65.1903 110.327 66.7333 112.288 68.5972C113.36 69.6055 114.299 70.4305 114.381 70.4305C114.711 70.4305 113.722 68.9639 112.552 67.6805C110.508 65.45 109.536 64.5028 108.514 63.8153C107.987 63.4486 107.443 63.0361 107.311 62.8833C106.882 62.4097 104.081 60.7139 103.256 60.4389C102.811 60.2861 102.366 60.0875 102.284 60.0264C102.086 59.8583 101.295 59.843 101.13 59.9958Z" fill="#360202" fill-opacity="0.95"/>
<path d="M100.191 60.6375C99.6306 61.05 99.8943 61.4319 101.889 63.25C103.405 64.625 103.998 65.0375 105.696 65.9236C108.415 67.3292 108.25 67.2222 109.668 68.3986C111.992 70.3236 112.107 70.4 112.618 70.2167C112.865 70.1403 113.063 70.0028 113.063 69.9417C113.063 69.8653 112.338 69.1319 111.464 68.3222C109.437 66.443 108.119 65.5264 105.992 64.518C105.58 64.3194 104.872 63.7542 104.41 63.2653C103.652 62.4555 102.136 61.2791 100.999 60.6222C100.586 60.3778 100.537 60.3778 100.191 60.6375Z" fill="#360202" fill-opacity="0.95"/>
<path d="M89.1648 62.1347C89.1648 62.7764 89.4944 63.5861 89.89 63.9375C90.2361 64.243 92.2139 65.4958 92.7413 65.7555C93.4335 66.0764 93.6148 66.0611 93.6148 65.6944C93.6148 65.5264 93.5489 65.3889 93.4665 65.3889C93.3841 65.3889 92.8072 64.9 92.1809 64.3042C91.5711 63.7083 90.6316 62.8222 90.1207 62.3486L89.1648 61.4625V62.1347Z" fill="#360202" fill-opacity="0.95"/>
<path d="M99.9602 62.4861C100.141 63.1125 100.471 63.4791 102.531 65.3583C104.575 67.2222 105.119 67.6347 106.685 68.4597C107.674 68.9791 109.009 69.7889 109.668 70.2778C110.789 71.1028 110.871 71.1333 111.217 70.9194C111.711 70.6139 111.679 70.3694 111.069 69.9416C110.789 69.743 110.096 69.2083 109.552 68.7347C108.448 67.818 107.937 67.4666 106.8 66.8861C103.734 65.2819 103.355 65.0375 101.592 63.4333L99.7624 61.768L99.9602 62.4861Z" fill="#360202" fill-opacity="0.95"/>
<path d="M106.47 61.7833C106.47 61.8139 106.602 61.9361 106.767 62.0431C107.014 62.2417 107.031 62.2264 106.816 61.9819C106.602 61.7375 106.47 61.6611 106.47 61.7833Z" fill="#360202" fill-opacity="0.95"/>
<path d="M107.377 62.4708C107.558 62.6694 108.151 63.143 108.695 63.525C109.239 63.9222 109.931 64.4722 110.228 64.7778C112.255 66.7486 112.7 67.2222 114.101 68.9486C114.826 69.8347 114.892 69.6667 114.266 68.5514C113.739 67.65 110.508 64.5333 108.695 63.2347C107.294 62.2111 106.932 62.0125 107.377 62.4708Z" fill="#360202" fill-opacity="0.95"/>
<path d="M87.4343 63.0056C86.8904 63.2195 86.2641 64.1361 86.775 63.9528C86.9233 63.907 87.1211 63.8611 87.2035 63.8611C87.4013 63.8611 88.1759 63.1125 88.1759 62.9292C88.1759 62.7458 88.0276 62.7611 87.4343 63.0056Z" fill="#360202" fill-opacity="0.95"/>
<path d="M77.6278 63.3416C75.9302 63.6472 73.3591 64.2278 72.947 64.4111C72.4855 64.6097 72.6339 64.625 74.6611 64.5486C75.8807 64.518 77.3311 64.4111 77.875 64.3194C78.4189 64.2278 79.9022 64.1055 81.1713 64.0444L83.4787 63.9375L81.6657 63.6625C79.4902 63.3569 78.1881 63.25 77.6278 63.3416Z" fill="#360202" fill-opacity="0.95"/>
<path d="M86.1158 63.6014C86.0498 63.7542 86.0334 63.9222 86.0993 63.9681C86.2641 64.1208 86.3959 63.9069 86.3135 63.6014C86.2476 63.3417 86.2476 63.3417 86.1158 63.6014Z" fill="#360202" fill-opacity="0.95"/>
<path d="M100.142 64.0903C99.7624 65.0222 100.718 66.0458 104.493 68.7347C107.08 70.568 110.195 72.1569 110.459 71.775C110.525 71.668 110.558 71.5 110.541 71.4236C110.426 71.118 108.069 69.5444 106.421 68.6889C105.086 68.0014 104.344 67.4667 102.828 66.1069C100.174 63.7236 100.273 63.8 100.142 64.0903Z" fill="#360202" fill-opacity="0.95"/>
<path d="M86.9563 64.3042C86.9068 64.3806 87.0387 64.5486 87.253 64.6861C87.6155 64.9 87.632 64.9611 87.4672 65.3736C87.3189 65.7556 87.3354 65.8778 87.5991 66.1528L87.8957 66.4583L88.3243 66.0917C89.2143 65.3431 89.857 65.2056 90.4998 65.6792C90.7141 65.832 91.3404 66.107 91.8842 66.2903C92.4281 66.4736 93.2852 66.7945 93.7796 66.9931C94.2741 67.1917 95.3948 67.6042 96.2518 67.9097C97.1089 68.2153 98.7076 68.7958 99.7954 69.2083C100.883 69.6208 102.185 70.0792 102.68 70.2167C103.982 70.5681 104.723 70.8431 106.388 71.5764C109.157 72.8139 112.255 73.8681 113.475 73.975C113.821 74.0056 113.969 73.9445 114.019 73.7611C114.052 73.5625 113.871 73.4708 113.195 73.3486C111.81 73.0736 109.981 72.5083 108.234 71.8208C106.355 71.057 103.191 69.9264 101.773 69.4833C101.229 69.3153 100.092 68.9181 99.235 68.6278C97.4715 67.9861 97.3561 67.8486 97.3067 66.2903C97.3067 65.7403 97.2407 65.2056 97.1748 65.0986C96.977 64.7931 95.9717 64.9 95.4937 65.282C95.1311 65.5722 95.0817 65.7097 95.1805 66.1222C95.263 66.5042 95.3783 66.6111 95.642 66.5958C95.9387 66.5806 95.9552 66.5653 95.708 66.5042C95.3124 66.4125 95.4607 66.0611 95.8563 66.1222C96.3342 66.2139 96.5815 66.4583 96.5815 66.8708C96.5815 67.4208 96.2189 67.4514 94.6367 66.9931C93.3511 66.6264 90.4668 65.3431 89.8241 64.8695C89.1483 64.35 87.1705 63.9681 86.9563 64.3042Z" fill="#360202" fill-opacity="0.95"/>
<path d="M77.7926 64.7014C77.018 64.8236 75.2709 64.9611 73.9195 64.9917C71.3319 65.0528 70.5407 65.2208 69.4695 65.9083L68.975 66.2292L70.5407 66.3361C71.5956 66.3972 72.6504 66.3667 73.7546 66.2139C74.9083 66.0611 75.9961 66.0153 77.3806 66.0917C79.4243 66.1833 81.2207 66.0306 82.8524 65.6028C83.3304 65.4653 84.3357 65.3278 85.0774 65.2667L86.4454 65.1597L85.9839 64.8695C85.6048 64.625 85.1269 64.5792 82.358 64.5333C80.0835 64.5028 78.798 64.5486 77.7926 64.7014Z" fill="#360202" fill-opacity="0.95"/>
<path d="M97.9989 65.7861C97.8341 66.1681 98.0154 66.2292 98.2296 65.8625C98.3285 65.6792 98.345 65.5417 98.2461 65.5417C98.1637 65.5417 98.0483 65.6486 97.9989 65.7861Z" fill="#360202" fill-opacity="0.95"/>
<path d="M82.8194 66.0305C81.4515 66.3514 76.062 66.6417 70.9033 66.6722L68.53 66.6875L68.1344 67.1153C67.9202 67.3444 67.7389 67.6042 67.7389 67.6958C67.7389 67.7722 68.3652 67.818 69.1893 67.8028C69.9804 67.7875 71.6285 67.8333 72.8482 67.8944C74.7106 68.0014 75.4687 67.9708 77.4959 67.6958C78.8474 67.5125 80.545 67.375 81.2867 67.375C82.4239 67.375 82.9678 67.268 84.4676 66.7944C85.7532 66.3972 86.297 66.1528 86.33 65.9542C86.3794 65.725 86.2476 65.6944 85.2587 65.7097C84.6489 65.7097 83.5446 65.8625 82.8194 66.0305Z" fill="#360202" fill-opacity="0.95"/>
<path d="M99.1526 66.4278C98.8724 66.7333 98.5593 67.0542 98.4439 67.1153C98.3285 67.1764 98.2296 67.2986 98.2296 67.3597C98.2296 67.5278 101.048 68.7347 101.724 68.8417L102.268 68.9486L101.509 68.2C101.097 67.7875 100.521 67.0847 100.224 66.6417C99.9272 66.2139 99.6635 65.8472 99.647 65.8472C99.647 65.8472 99.4163 66.1069 99.1526 66.4278Z" fill="#360202" fill-opacity="0.95"/>
<path d="M94.2906 66.2444C94.2906 66.4125 94.3401 66.4583 94.3897 66.3361C94.4392 66.2292 94.4227 66.0917 94.3732 66.0458C94.3236 65.9847 94.274 66.0764 94.2906 66.2444Z" fill="#360202" fill-opacity="0.95"/>
<path d="M100.619 66.3056C101.575 67.8181 103.322 69.3458 104.723 69.8653C105.35 70.0945 105.877 70.2625 105.926 70.2167C105.959 70.1861 105.119 69.5445 104.064 68.8111C102.993 68.0625 101.757 67.1458 101.295 66.7639C100.85 66.382 100.537 66.1833 100.619 66.3056Z" fill="#360202" fill-opacity="0.95"/>
<path d="M89.033 66.4125C88.9176 66.443 88.6539 66.8708 88.4231 67.3444C87.8463 68.5667 87.6815 68.7958 86.9563 69.5139C85.852 70.6292 84.5994 71.0264 81.1713 71.3472C80.2813 71.4389 79.5067 71.5458 79.4572 71.5764C79.4243 71.6222 81.1054 71.6528 83.1985 71.6528H87.0222L87.7474 70.6139C88.7857 69.1778 89.7581 68.3222 91.1591 67.65C92.115 67.1917 92.2963 67.0542 92.0326 66.9778C91.8678 66.9167 91.3568 66.7486 90.9283 66.5805C90.1702 66.3208 89.4615 66.2444 89.033 66.4125Z" fill="#360202" fill-opacity="0.95"/>
<path d="M84.962 67.1C83.8743 67.4819 83.182 67.6042 81.0889 67.7569C79.688 67.8792 77.7761 68.0778 76.8531 68.2C74.8094 68.4903 73.4415 68.5056 71.3648 68.2306C70.5078 68.1236 69.3211 68.0778 68.7278 68.1236C67.8213 68.2 67.6565 68.2611 67.6565 68.5056C67.6565 68.7042 67.7883 68.8111 68.0685 68.8569C68.2993 68.8875 69.0409 69.0097 69.7167 69.1472C71.3154 69.4528 75.3369 69.4375 78.2046 69.1167C79.3913 68.9944 80.9735 68.8264 81.7481 68.75C83.4622 68.5819 83.8743 68.475 85.1269 67.8333C86.297 67.2222 86.7091 66.9167 86.5937 66.7486C86.4783 66.5653 86.4783 66.5653 84.962 67.1Z" fill="#360202" fill-opacity="0.95"/>
<path d="M86.2476 67.7417C85.028 68.5208 84.4017 68.7194 81.7482 69.2083C79.655 69.5903 78.8474 69.6667 75.3204 69.7583C71.5791 69.85 71.1835 69.8194 69.8321 69.5292C69.0409 69.3458 68.2169 69.2083 68.0191 69.2083C67.673 69.2083 67.673 69.2083 68.0685 69.575C68.4476 69.9111 68.6948 69.9569 71.8593 70.1861C78.4189 70.6597 82.8524 70.4306 84.8467 69.4833C85.9345 68.9639 86.9398 68.1542 87.1211 67.65C87.2859 67.1611 87.1211 67.1917 86.2476 67.7417Z" fill="#360202" fill-opacity="0.95"/>
<path d="M92.8896 68.1542C92.3457 68.75 92.3457 69.1014 92.8896 69.4986C93.483 69.9264 93.7632 69.9111 93.3182 69.4681C92.8072 68.9792 92.8567 68.3833 93.417 68.0014C93.7467 67.7722 93.7796 67.6958 93.5819 67.6806C93.4335 67.6806 93.1204 67.8944 92.8896 68.1542Z" fill="#360202" fill-opacity="0.95"/>
<path d="M93.9609 68.2153C93.3347 68.5361 93.2522 68.8111 93.6313 69.2694C93.8621 69.5292 94.1258 69.6667 94.4389 69.6667C95.0487 69.6667 95.1147 69.5444 94.9663 68.7347C94.8345 68.0014 94.6037 67.8792 93.9609 68.2153Z" fill="#360202" fill-opacity="0.95"/>
<path d="M90.813 68.6889C89.7911 69.2236 88.555 70.3695 88.077 71.225C87.8628 71.6222 87.6815 71.9736 87.6815 72.0195C87.6815 72.05 88.1595 71.6222 88.7528 71.0722C89.3461 70.507 89.8241 70.0028 89.8241 69.9417C89.8241 69.8958 90.1043 69.7583 90.4504 69.6514C91.3898 69.3764 91.8019 69.0556 91.8019 68.6583C91.8019 68.2 91.7359 68.2 90.813 68.6889Z" fill="#360202" fill-opacity="0.95"/>
<path d="M95.4443 69.4528C95.4443 69.6208 95.4938 69.6667 95.5434 69.5444C95.5929 69.4375 95.5764 69.3 95.5268 69.2542C95.4773 69.1931 95.4277 69.2847 95.4443 69.4528Z" fill="#360202" fill-opacity="0.95"/>
<path d="M96.2024 69.5292C96.153 69.6972 96.2189 70.0792 96.3507 70.3542C96.4826 70.6444 96.5815 71.0569 96.5815 71.2708C96.5815 71.5611 96.6639 71.6528 96.9276 71.6528C97.2572 71.6528 97.2737 71.5917 97.1913 70.7208C97.0759 69.5444 96.4167 68.75 96.2024 69.5292Z" fill="#360202" fill-opacity="0.95"/>
<path d="M91.0272 69.8042C90.1702 70.1097 88.0276 72.0042 87.4013 72.982C86.8409 73.8681 86.4948 74.9833 86.3959 76.1597L86.33 77.0764L86.6596 76.6945C86.8409 76.4806 87.253 75.7931 87.5991 75.1667C88.1924 74.0667 89.2143 72.9667 91.7854 70.6445C92.4117 70.0792 92.4776 69.957 92.2963 69.7583C92.0491 69.4681 91.9172 69.4681 91.0272 69.8042Z" fill="#360202" fill-opacity="0.95"/>
<path d="M94.8509 70.0486C94.5872 70.1556 94.4718 70.2625 94.6202 70.2625C94.752 70.2778 95.0157 70.1708 95.197 70.0486C95.5926 69.7736 95.4937 69.7736 94.8509 70.0486Z" fill="#360202" fill-opacity="0.95"/>
<path d="M84.2204 70.125C84.0885 70.2014 84.0555 70.2778 84.1379 70.2778C84.2368 70.2778 84.4181 70.2014 84.55 70.125C84.6818 70.0486 84.7313 69.9722 84.6324 69.9722C84.55 69.9722 84.3522 70.0486 84.2204 70.125Z" fill="#360202" fill-opacity="0.95"/>
<path d="M81.5833 70.5986L79.688 70.8736L81.0889 70.8125C81.8635 70.782 82.8194 70.6445 83.2315 70.5222C84.1874 70.2472 83.8907 70.2625 81.5833 70.5986Z" fill="#360202" fill-opacity="0.95"/>
<path d="M90.5822 72.1875C88.9011 73.7458 88.3902 74.3111 87.9122 75.2125C87.5826 75.8083 87.1706 76.4958 86.9893 76.725C86.7915 76.9847 86.6926 77.3361 86.7256 77.6264C86.775 78.1 86.775 78.0847 87.5002 77.1222C87.8957 76.6028 89 75.1514 89.9559 73.8986C91.67 71.6681 91.6865 71.6528 92.3293 71.6528C92.8896 71.6528 92.9885 71.5917 93.2357 71.1028C93.483 70.6292 93.483 70.5528 93.2852 70.4306C93.1533 70.3389 92.9556 70.2778 92.8567 70.2778C92.7413 70.2778 91.7359 71.1333 90.5822 72.1875Z" fill="#360202" fill-opacity="0.95"/>
<path d="M95.4772 70.6139C95.2794 70.8125 95.1311 71.118 95.1476 71.3167C95.1641 71.5917 95.263 71.6528 95.708 71.6528C96.1859 71.6528 96.2519 71.6069 96.2519 71.225C96.2519 70.9805 96.153 70.675 96.0376 70.5222C95.8398 70.2778 95.8069 70.2778 95.4772 70.6139Z" fill="#360202" fill-opacity="0.95"/>
<path d="M70.1782 70.675C70.5737 70.782 71.4472 70.95 72.123 71.0417C73.6228 71.225 78.0233 71.2403 77.5454 71.0417C77.3641 70.9653 76.5565 70.9042 75.7324 70.8889C74.9248 70.8889 73.4745 70.782 72.5185 70.6597C71.5626 70.5375 70.4913 70.4458 70.1287 70.4458L69.4695 70.4611L70.1782 70.675Z" fill="#360202" fill-opacity="0.95"/>
<path d="M93.6148 71.0264C93.3181 71.5458 93.4335 71.6528 94.1917 71.6528C94.8674 71.6528 94.9333 71.6222 94.9333 71.2861C94.9333 70.7055 93.928 70.5069 93.6148 71.0264Z" fill="#360202" fill-opacity="0.95"/>
<path d="M112.536 71.1028C111.909 71.4083 111.316 71.8055 111.481 71.8055C111.563 71.8055 111.893 71.6528 112.206 71.4694C112.519 71.2861 113.046 71.0875 113.376 71.0264C113.953 70.9347 113.953 70.9194 113.475 70.9042C113.211 70.9042 112.783 70.9958 112.536 71.1028Z" fill="#360202" fill-opacity="0.95"/>
<path d="M112.552 71.6986C111.563 72.1875 111.53 72.4778 112.47 72.7069C113.772 73.0125 114.002 72.9514 114.101 72.3097C114.283 71.3014 113.772 71.1028 112.552 71.6986Z" fill="#360202" fill-opacity="0.95"/>
<path d="M88.3407 98.9847C88.3407 99.0764 88.4067 99.1681 88.4891 99.2292C88.5879 99.275 88.4726 99.657 88.2583 100.115C87.7639 101.078 87.7474 101.231 88.1759 101.444C88.4231 101.567 88.6539 101.536 89.1648 101.292C89.9394 100.925 89.9394 100.772 89.1318 99.5653C88.6704 98.8931 88.3407 98.6486 88.3407 98.9847Z" fill="#360202" fill-opacity="0.95"/>
<path d="M93.2852 99.1528C93.1863 99.2139 93.1204 99.4125 93.1534 99.5806C93.2028 99.8708 93.2522 99.8861 93.5984 99.7181C93.8291 99.6264 94.0269 99.4583 94.0598 99.3667C94.1422 99.1528 93.5654 99 93.2852 99.1528Z" fill="#360202" fill-opacity="0.95"/>
<path d="M97.7022 100.329C97.8176 100.375 97.9659 100.36 98.0154 100.314C98.0813 100.268 97.9824 100.222 97.8011 100.237C97.6198 100.237 97.5704 100.283 97.7022 100.329Z" fill="#360202" fill-opacity="0.95"/>
<path d="M83.3963 99C83.3963 99.0764 83.4787 99.1528 83.5611 99.1528C83.66 99.1528 83.7259 99.0764 83.7259 99C83.7259 98.9083 83.66 98.8472 83.5611 98.8472C83.4787 98.8472 83.3963 98.9083 83.3963 99Z" fill="#360202" fill-opacity="0.95"/>
<path d="M99.7954 101.903C99.8613 101.994 99.9767 102.025 100.059 101.979C100.29 101.842 100.24 101.75 99.9437 101.75C99.8119 101.75 99.7459 101.826 99.7954 101.903Z" fill="#360202" fill-opacity="0.95"/>
</svg>
