<svg width="29" height="29" viewBox="0 0 29 29" fill="none" xmlns="http://www.w3.org/2000/svg">
<path d="M14.5 5.4375C16.3737 5.4375 17.9387 3.9773 18.125 2.15234C18.142 1.98242 17.9551 1.8125 17.7852 1.8125C17.6933 1.81259 17.6022 1.82988 17.5167 1.86348C17.5054 1.86801 16.3216 2.32227 14.5 2.32227C12.6785 2.32227 11.4924 1.86914 11.4833 1.86348C11.3868 1.82989 11.2853 1.81267 11.1831 1.8125H11.1797C11.1374 1.81474 11.0959 1.82532 11.0577 1.84363C11.0194 1.86193 10.9852 1.88761 10.9568 1.91918C10.9285 1.95075 10.9067 1.9876 10.8927 2.02761C10.8787 2.06762 10.8726 2.11001 10.875 2.15234C11.0648 3.97391 12.6309 5.4375 14.5 5.4375Z" fill="#D88484"/>
<path d="M27.4871 5.09202L20.164 2.52846C20.1327 2.51752 20.0993 2.51361 20.0663 2.517C20.0332 2.52038 20.0013 2.53099 19.9729 2.54807C19.9444 2.56514 19.92 2.58827 19.9015 2.61581C19.8829 2.64336 19.8706 2.67464 19.8655 2.70745C19.6536 3.9768 18.9984 5.12987 18.0164 5.96158C17.0343 6.79329 15.7891 7.24973 14.5022 7.24973C13.2153 7.24973 11.9701 6.79329 10.9881 5.96158C10.006 5.12987 9.35079 3.9768 9.13892 2.70745C9.13395 2.67409 9.1216 2.64227 9.10277 2.61429C9.08393 2.58632 9.05909 2.5629 9.03005 2.54575C9.00102 2.5286 8.96852 2.51815 8.93493 2.51516C8.90134 2.51217 8.8675 2.51671 8.83589 2.52846L1.51283 5.09202C1.30786 5.16377 1.13547 5.30674 1.02705 5.4949C0.91862 5.68306 0.881366 5.9039 0.922065 6.11721L1.864 11.1016C1.90025 11.2916 1.99633 11.465 2.13819 11.5964C2.28005 11.7279 2.46025 11.8105 2.65244 11.8323L5.42103 12.1449C5.53405 12.1577 5.63814 12.2124 5.71264 12.2984C5.78714 12.3843 5.8266 12.4951 5.82318 12.6088L5.408 26.2535C5.4025 26.4294 5.44831 26.603 5.53983 26.7533C5.63136 26.9036 5.76465 27.0239 5.92343 27.0997C6.05542 27.1594 6.19888 27.1893 6.34371 27.1875H22.6562C22.801 27.1893 22.9445 27.1594 23.0765 27.0997C23.2353 27.0239 23.3686 26.9036 23.4601 26.7533C23.5516 26.603 23.5974 26.4294 23.5919 26.2535L23.1767 12.6088C23.1733 12.4951 23.2128 12.3843 23.2873 12.2984C23.3618 12.2124 23.4659 12.1577 23.5789 12.1449L26.3475 11.8323C26.5397 11.8105 26.7199 11.7279 26.8617 11.5964C27.0036 11.465 27.0997 11.2916 27.1359 11.1016L28.0778 6.11721C28.1185 5.9039 28.0813 5.68306 27.9729 5.4949C27.8644 5.30674 27.6921 5.16377 27.4871 5.09202Z" fill="#D88484"/>
</svg>
