<svg width="23" height="21" viewBox="0 0 23 21" fill="none" xmlns="http://www.w3.org/2000/svg">
<path d="M21.6748 10.2777L11.6187 0.228862C11.5462 0.156313 11.4602 0.0987561 11.3656 0.0594851C11.2709 0.020214 11.1694 0 11.0669 0C10.9644 0 10.8629 0.020214 10.7682 0.0594851C10.6735 0.0987561 10.5875 0.156313 10.5151 0.228862L0.458984 10.2777C0.166016 10.5707 0 10.9686 0 11.3836C0 12.2455 0.700684 12.9461 1.5625 12.9461H2.62207V20.1166C2.62207 20.5487 2.97119 20.8978 3.40332 20.8978H9.50439V15.4291H12.2388V20.8978H18.7305C19.1626 20.8978 19.5117 20.5487 19.5117 20.1166V12.9461H20.5713C20.9863 12.9461 21.3843 12.7826 21.6772 12.4872C22.2852 11.8768 22.2852 10.888 21.6748 10.2777V10.2777Z" fill="#263238"/>
</svg>
