<svg width="29" height="29" viewBox="0 0 29 29" fill="none" xmlns="http://www.w3.org/2000/svg">
<path d="M28.1504 15.4628L18.6348 24.9785C17.7852 25.8281 16.3125 25.2334 16.3125 24.0156V18.5781H8.60938C7.85605 18.5781 7.25 17.972 7.25 17.2187V11.7812C7.25 11.0279 7.85605 10.4218 8.60938 10.4218H16.3125V4.98433C16.3125 3.77222 17.7795 3.17183 18.6348 4.02144L28.1504 13.5371C28.6771 14.0695 28.6771 14.9304 28.1504 15.4628ZM10.875 24.6953V22.4296C10.875 22.0558 10.5691 21.75 10.1953 21.75H5.4375C4.43496 21.75 3.625 20.94 3.625 19.9375V9.06245C3.625 8.05991 4.43496 7.24995 5.4375 7.24995H10.1953C10.5691 7.24995 10.875 6.94409 10.875 6.57027V4.30464C10.875 3.93081 10.5691 3.62495 10.1953 3.62495H5.4375C2.43555 3.62495 0 6.0605 0 9.06245V19.9375C0 22.9394 2.43555 25.375 5.4375 25.375H10.1953C10.5691 25.375 10.875 25.0691 10.875 24.6953Z" fill="#D88484"/>
</svg>
